<svg width="24" height="17" viewBox="0 0 24 17"   xmlns="http://www.w3.org/2000/svg">
<path d="M18 1.2C18 0.537281 17.4627 0 16.8 0H1.2C0.537281 0 0 0.537281 0 1.2C0 1.86272 0.537281 2.4 1.2 2.4H16.8C17.4627 2.4 18 1.86267 18 1.2ZM1.2 7.2H22.8C23.4627 7.2 24 7.73733 24 8.4C24 9.06272 23.4627 9.6 22.8 9.6H1.2C0.537281 9.6 0 9.06272 0 8.4C0 7.73733 0.537281 7.2 1.2 7.2ZM1.2 14.4H12C12.6627 14.4 13.2 14.9373 13.2 15.6C13.2 16.2627 12.6627 16.8 12 16.8H1.2C0.537281 16.8 0 16.2627 0 15.6C0 14.9373 0.537281 14.4 1.2 14.4Z" />
</svg>
