<svg  viewBox="0 0 70 60" fill="none" xmlns="http://www.w3.org/2000/svg">
<g clip-path="url(#clip0_4501_70)">
<path fill-rule="evenodd" clip-rule="evenodd" d="M35.9495 0H19.8596C14.6749 0.712365 16.4564 10.5993 19.502 10.5074C25.4017 10.3293 26.8319 10.5074 30.0498 12.8226C32.8155 14.8124 34.113 17.4529 34.3405 19.9462C34.5842 22.6176 34.8053 26.8562 30.9437 30.2755C26.1167 34.5497 20.7534 33.3031 18.2506 32.4126C16.2483 31.7002 16.4628 32.472 16.8204 32.9469C19.1445 34.7278 24.6865 35.084 27.9045 33.6592C30.4789 32.5195 30.8841 33.1843 30.7649 33.6592C37.4725 32.824 38.4683 28.2938 38.1214 25.9823C37.4414 25.8722 36.9223 25.2846 36.9223 24.5761C36.9223 23.7892 37.5626 23.1514 38.3525 23.1514C39.1424 23.1514 39.7827 23.7892 39.7827 24.5761C39.7827 25.1129 39.4847 25.5803 39.0446 25.8232H39.1675V26.5356C39.1675 33.3743 33.4466 35.084 30.5862 35.084V37.5772H19.8596C17.893 37.5772 16.8204 37.9334 16.8204 40.6048C16.8204 42.7419 18.0122 43.2762 18.6081 43.2762H33.9829C49.7153 44.7009 55.0786 35.6182 52.7545 28.6727C50.8952 23.1162 46.1397 21.3709 43.9944 21.1929C51.503 17.9872 52.0394 11.0417 49.1789 5.52083C46.8906 1.10417 39.4058 0 35.9495 0ZM39.4082 13.7877C39.5837 14.0992 39.4588 14.4901 39.1407 14.6547C38.8225 14.8194 38.4316 14.6952 38.2554 14.3842C36.837 11.8799 34.8564 9.73599 32.4686 8.12035C32.1721 7.91968 32.0803 7.52135 32.2713 7.21915C32.4624 6.91694 32.8638 6.82535 33.1608 7.02536C35.7433 8.76427 37.8826 11.08 39.4082 13.7877ZM36.2831 14.9057C36.4765 15.2064 36.3747 15.604 36.0667 15.7868C35.7588 15.9697 35.3613 15.8685 35.1672 15.5682C33.9223 13.6424 32.332 11.9614 30.4759 10.6095C30.1865 10.3987 30.1087 9.99742 30.3101 9.702C30.5116 9.40657 30.916 9.32891 31.2059 9.53906C33.2184 10.998 34.9402 12.8181 36.2831 14.9057Z" fill="#FFBB15"/>
<ellipse cx="22.8689" cy="22.0839" rx="3.39676" ry="3.38373" fill="#FFBB15"/>
<path d="M0 52.8789H3.79436C4.60195 52.8789 5.23601 53.0385 5.69654 53.3576C6.15707 53.6768 6.38734 54.1089 6.38734 54.6541C6.38734 55.053 6.26052 55.3921 6.0069 55.6714C5.75995 55.944 5.42289 56.1301 4.99574 56.2299C5.50299 56.3362 5.91012 56.5357 6.21714 56.8283C6.52416 57.1142 6.67767 57.4898 6.67767 57.9552C6.67767 58.5337 6.43739 58.9957 5.95684 59.3415C5.48296 59.6872 4.84223 59.8601 4.03463 59.8601H0V52.8789ZM1.95224 56.8681V58.5237H3.6542C3.96122 58.5237 4.20483 58.4505 4.38504 58.3043C4.57192 58.158 4.66536 57.9552 4.66536 57.6959C4.66536 57.4366 4.57192 57.2338 4.38504 57.0876C4.20483 56.9413 3.96122 56.8681 3.6542 56.8681H1.95224ZM3.47399 55.7711C3.75431 55.7711 3.98124 55.7013 4.15477 55.5617C4.33498 55.422 4.42508 55.2292 4.42508 54.9832C4.42508 54.7306 4.33498 54.5378 4.15477 54.4048C3.97456 54.2652 3.74096 54.1954 3.45397 54.1954H1.95224V55.7711H3.47399Z" fill="white"/>
<path d="M7.74702 52.8789H9.70928V57.0377C9.70928 57.4898 9.82608 57.8488 10.0597 58.1148C10.2933 58.3807 10.627 58.5137 11.0608 58.5137C11.4947 58.5137 11.8284 58.3807 12.062 58.1148C12.2956 57.8488 12.4124 57.4898 12.4124 57.0377V52.8789H14.3846V57.1274C14.3846 58.0516 14.0876 58.763 13.4936 59.2617C12.8996 59.7537 12.0887 59.9997 11.0608 59.9997C10.0196 59.9997 9.20536 59.7504 8.61802 59.2517C8.03735 58.7531 7.74702 58.045 7.74702 57.1274V52.8789Z" fill="white"/>
<path d="M15.5091 59.8601V58.773L18.893 54.4048H15.6093V52.8789H21.6662V53.9959L18.3124 58.3342H21.9365V59.8601H15.5091Z" fill="white"/>
<path d="M22.8465 59.8601V58.773L26.2304 54.4048H22.9466V52.8789H29.0035V53.9959L25.6497 58.3342H29.2739V59.8601H22.8465Z" fill="white"/>
<path d="M36.2808 52.8789V54.3948H32.4064V55.7013H35.6701V56.8881H32.4064V58.3342H36.481V59.8601H30.4541V52.8789H36.2808Z" fill="white"/>
<path d="M37.6643 59.8601V52.8789H41.2985C42.2196 52.8789 42.9371 53.085 43.451 53.4972C43.9649 53.9095 44.2219 54.4779 44.2219 55.2026C44.2219 55.7079 44.0951 56.1401 43.8414 56.4991C43.5945 56.8515 43.2508 57.1175 42.8103 57.297L44.332 59.8601H42.1195L40.878 57.656H39.6366V59.8601H37.6643ZM41.0382 56.3396C41.392 56.3396 41.679 56.2565 41.8992 56.0902C42.1261 55.9174 42.2396 55.6714 42.2396 55.3522C42.2396 55.0264 42.1328 54.7804 41.9192 54.6142C41.7057 54.448 41.4187 54.3649 41.0582 54.3649H39.6366V56.3396H41.0382Z" fill="white"/>
<path d="M48.0212 59.8601L51.0146 52.8789H52.2961L55.2795 59.8601H54.1983L53.5175 58.2544H49.7932L49.1124 59.8601H48.0212ZM53.2372 57.5563L51.6453 53.9361L50.0635 57.5563H53.2372Z" fill="white"/>
<path d="M56.4835 59.8601V52.8789H59.9374C60.725 52.8789 61.3557 53.0883 61.8296 53.5072C62.3102 53.9194 62.5504 54.468 62.5504 55.1528C62.5504 55.8376 62.3102 56.3928 61.8296 56.8183C61.3557 57.2372 60.725 57.4466 59.9374 57.4466H57.5447V59.8601H56.4835ZM57.5447 56.6487H59.8273C60.3279 56.6487 60.7283 56.5124 61.0287 56.2398C61.3357 55.9606 61.4892 55.6049 61.4892 55.1727C61.4892 54.7339 61.339 54.3815 61.0387 54.1156C60.7383 53.843 60.3379 53.7067 59.8373 53.7067H57.5447V56.6487Z" fill="white"/>
<path d="M63.933 59.8601V52.8789H67.387C68.1746 52.8789 68.8053 53.0883 69.2792 53.5072C69.7597 53.9194 70 54.468 70 55.1528C70 55.8376 69.7597 56.3928 69.2792 56.8183C68.8053 57.2372 68.1746 57.4466 67.387 57.4466H64.9942V59.8601H63.933ZM64.9942 56.6487H67.2769C67.7774 56.6487 68.1779 56.5124 68.4782 56.2398C68.7853 55.9606 68.9388 55.6049 68.9388 55.1727C68.9388 54.7339 68.7886 54.3815 68.4883 54.1156C68.1879 53.843 67.7875 53.7067 67.2869 53.7067H64.9942V56.6487Z" fill="white"/>
</g>
<defs>
<clipPath id="clip0_4501_70">
<rect width="100%" height="100%" fill="white"/>
</clipPath>
</defs>
</svg>
