<svg width="727" height="217" viewBox="0 0 727 217" fill="none" xmlns="http://www.w3.org/2000/svg">
<rect y="0.0644531" width="589.646" height="56" fill="white" fill-opacity="0.2"/>
<rect y="160.803" width="584.738" height="56" fill="white" fill-opacity="0.2"/>
<path d="M584.738 188.749C644.589 188.749 698.064 168.285 698.064 108.434C698.064 48.5836 649.499 27.9999 589.648 27.9999" stroke="white" stroke-opacity="0.2" stroke-width="56"/>
<path d="M498.631 34.0527L501.195 36.7017C498.854 39.1113 495.812 40.3076 492.052 40.3076C488.309 40.3076 485.284 39.1455 482.977 36.8213C480.653 34.5142 479.491 31.4893 479.491 27.7808C479.491 24.0381 480.653 21.0132 482.977 18.6719C485.284 16.3477 488.309 15.1855 492.018 15.1855C495.692 15.1855 498.751 16.3818 501.195 18.7915L498.631 21.4233C497.999 20.6714 497.11 20.0562 495.965 19.5776C494.803 19.0991 493.59 18.8599 492.342 18.8599C489.916 18.8599 487.933 19.6802 486.412 21.3379C484.874 22.9956 484.105 25.1318 484.105 27.7466C484.105 30.3271 484.874 32.4463 486.412 34.104C487.933 35.7617 489.916 36.5991 492.342 36.5991C493.607 36.5991 494.82 36.3599 495.965 35.8984C497.11 35.437 497.999 34.8218 498.631 34.0527ZM507.125 40H502.545L513.397 15.4932H517.84L528.692 40H524.095L521.754 34.6167H509.466L507.125 40ZM520.216 31.0107L515.636 20.4663L511.056 31.0107H520.216ZM535.836 40H531.632V15.4932H535.802L549.422 33.0615V15.4932H553.609V40H549.457L535.836 22.2607V40Z" fill="white" fill-opacity="0.5"/>
<path d="M495.723 194.856L498.286 197.505C495.945 199.915 492.903 201.111 489.143 201.111C485.4 201.111 482.375 199.949 480.068 197.625C477.744 195.318 476.582 192.293 476.582 188.584C476.582 184.842 477.744 181.817 480.068 179.476C482.375 177.151 485.4 175.989 489.109 175.989C492.783 175.989 495.842 177.186 498.286 179.595L495.723 182.227C495.09 181.475 494.202 180.86 493.057 180.381C491.895 179.903 490.681 179.664 489.434 179.664C487.007 179.664 485.024 180.484 483.503 182.142C481.965 183.799 481.196 185.936 481.196 188.55C481.196 191.131 481.965 193.25 483.503 194.908C485.024 196.565 487.007 197.403 489.434 197.403C490.698 197.403 491.912 197.164 493.057 196.702C494.202 196.241 495.09 195.625 495.723 194.856ZM505.959 200.804H501.619V176.297H505.959V186.602H519.512V176.297H523.853V200.804H519.512V190.157H505.959V200.804ZM531.355 200.804H526.775L537.627 176.297H542.07L552.922 200.804H548.325L545.984 195.42H533.696L531.355 200.804ZM544.446 191.814L539.866 181.27L535.286 191.814H544.446ZM560.066 200.804H555.862V176.297H560.032L573.652 193.865V176.297H577.839V200.804H573.687L560.066 183.064V200.804ZM599.458 190.516H593.545V186.944H603.799V197.591C601.423 199.966 598.313 201.163 594.468 201.163C590.623 201.146 587.495 199.983 585.12 197.642C582.744 195.318 581.548 192.293 581.548 188.584C581.548 184.842 582.744 181.817 585.137 179.476C587.529 177.151 590.623 175.989 594.399 175.989C598.21 175.989 601.338 177.186 603.799 179.595L601.287 182.261C600.586 181.492 599.629 180.86 598.416 180.398C597.185 179.937 595.92 179.698 594.604 179.698C592.126 179.698 590.11 180.518 588.538 182.176C586.948 183.833 586.162 185.97 586.162 188.584C586.162 191.165 586.965 193.284 588.555 194.925C590.144 196.583 592.195 197.403 594.707 197.403C596.536 197.403 598.108 196.941 599.458 196.036V190.516ZM607.883 200.804V176.297H625.776V179.869H612.224V186.551H624.683V190.123H612.224V197.232H626.084V200.804H607.883Z" fill="white" fill-opacity="0.5"/>
<path d="M697.326 105.016H699.826V104.985L699.826 104.953L697.326 105.016ZM659.177 177.949L687.28 171.349L667.512 150.312L659.177 177.949ZM585.122 28.7176L585.401 31.202C603.435 29.1777 630.544 30.5261 653.249 41.0018C664.569 46.2247 674.724 53.6827 682.159 64.0561C689.582 74.4118 694.39 87.8063 694.827 105.08L697.326 105.016L699.826 104.953C699.365 86.77 694.281 72.3846 686.223 61.1433C678.179 49.9197 667.268 41.9637 655.343 36.4617C631.558 25.4878 603.462 24.1433 584.843 26.2332L585.122 28.7176ZM697.326 105.016H694.826C694.826 118.009 690.211 141.067 673.654 160.942L675.575 162.542L677.495 164.142C694.939 143.203 699.826 118.944 699.826 105.016H697.326Z" fill="white"/>
</svg>
