<svg width="212" height="22" viewBox="0 0 212 22" fill="none" xmlns="http://www.w3.org/2000/svg">
<path d="M101.131 9.73658C101.131 9.73658 101.079 9.65568 100.979 9.50816C100.879 9.36063 100.731 9.14173 100.536 8.87048C100.436 8.73723 100.327 8.58495 100.208 8.42315C100.146 8.34225 100.084 8.26135 100.018 8.17093C99.9843 8.1281 99.951 8.08527 99.9177 8.03768C99.8843 7.99485 99.8463 7.94727 99.8082 7.90444C99.7368 7.81402 99.6607 7.71884 99.5845 7.62367C99.5036 7.52849 99.4227 7.43331 99.3371 7.32862C99.2562 7.22868 99.1658 7.12875 99.0753 7.02406C99.0278 6.97171 98.9849 6.91936 98.9373 6.86702C98.8898 6.81467 98.8422 6.76232 98.7946 6.70997C98.4044 6.2912 97.9618 5.85339 97.4573 5.42985C96.9529 5.01108 96.3961 4.60182 95.7775 4.24491C95.6204 4.15925 95.4634 4.07359 95.3064 3.98793C95.1446 3.90703 94.9828 3.83089 94.8162 3.75951C94.4831 3.61674 94.1357 3.49302 93.7788 3.38832C93.0697 3.18369 92.3178 3.06472 91.5707 3.05996C90.8236 3.05045 90.0812 3.1599 89.3959 3.38356C89.0533 3.49777 88.7297 3.64054 88.4204 3.81186C88.2681 3.89751 88.1206 3.98793 87.9778 4.08787C87.9064 4.13546 87.8445 4.1878 87.7779 4.23539C87.7161 4.28774 87.6494 4.34008 87.5876 4.39719C87.0926 4.83976 86.7072 5.38227 86.4455 5.94381C86.179 6.5101 86.0362 7.09544 85.9934 7.63794C85.9553 8.18045 86.0124 8.68012 86.1456 9.0989C86.2123 9.30829 86.2932 9.49388 86.3836 9.6652C86.4074 9.70803 86.4312 9.7461 86.455 9.78893C86.4645 9.80796 86.4788 9.827 86.4883 9.84603C86.5026 9.86507 86.5121 9.8841 86.5264 9.90314C86.5501 9.94121 86.5739 9.97452 86.5977 10.0126C86.6263 10.0459 86.6501 10.0792 86.6739 10.1125C86.6882 10.1268 86.6977 10.1458 86.7119 10.1601C86.7262 10.1744 86.7357 10.1887 86.75 10.2029C86.7738 10.2315 86.7976 10.2601 86.8262 10.2838C86.8737 10.3362 86.9261 10.3838 86.9784 10.4314C87.0784 10.5218 87.1783 10.5932 87.2687 10.655C87.4543 10.7788 87.6018 10.8501 87.6923 10.893C87.8731 10.9834 88.092 11.0643 88.3299 11.1214C88.5679 11.1737 88.8201 11.1975 89.0628 11.1642C89.1865 11.1452 89.3055 11.1166 89.4197 11.0738C89.4483 11.0643 89.4768 11.05 89.5054 11.0357C89.5196 11.031 89.5292 11.0215 89.5434 11.0167C89.553 11.0119 89.5672 11.0072 89.5768 11.0024C89.6005 10.9929 89.6196 10.9739 89.6434 10.9644C89.6672 10.9501 89.6862 10.931 89.71 10.9168C89.8813 10.7835 90.0384 10.5551 90.1335 10.2934C90.2287 10.0316 90.262 9.7461 90.2477 9.48912C90.2335 9.23215 90.1668 9.01324 90.0812 8.83241C89.9955 8.65633 89.8813 8.51832 89.7909 8.40887C89.7671 8.38508 89.7481 8.35652 89.729 8.33273C89.71 8.30894 89.6957 8.2899 89.6814 8.26611C89.6577 8.22328 89.6481 8.18521 89.6529 8.1519C89.6624 8.11858 89.6862 8.09003 89.7338 8.06624C89.7576 8.05672 89.7861 8.0472 89.8195 8.03768C89.8528 8.02817 89.8908 8.02817 89.9384 8.02817C89.9622 8.02817 89.986 8.02817 90.0098 8.02817C90.0336 8.03292 90.0574 8.03292 90.0859 8.03768C90.1145 8.04244 90.1383 8.0472 90.1716 8.05196C90.2002 8.06148 90.2287 8.071 90.2573 8.08051C90.381 8.11858 90.5095 8.18521 90.6475 8.28038C90.914 8.47074 91.1757 8.78482 91.3375 9.1798C91.5041 9.57478 91.585 10.0459 91.5421 10.5456C91.5183 10.7978 91.466 11.0548 91.3708 11.3117C91.2756 11.5687 91.1329 11.8257 90.9473 12.0541C90.8997 12.1112 90.8474 12.1683 90.795 12.2207C90.7379 12.273 90.6856 12.3254 90.6284 12.3777C90.5999 12.4015 90.5666 12.4253 90.538 12.4491C90.5095 12.4729 90.4762 12.4967 90.4476 12.5157C90.3905 12.5538 90.3334 12.5966 90.2715 12.6347C90.0336 12.7822 89.7719 12.8964 89.5101 12.9726C88.9819 13.1296 88.4537 13.1391 87.9968 13.0773C87.5352 13.0106 87.1355 12.8774 86.8166 12.7204C86.6548 12.6442 86.3979 12.5062 86.0933 12.2778C85.941 12.1636 85.7745 12.0256 85.6079 11.8543C85.5222 11.7686 85.4366 11.6782 85.3557 11.5782C85.3129 11.5259 85.27 11.4783 85.232 11.4212C85.2129 11.3926 85.1891 11.3641 85.1701 11.3403C85.1511 11.3117 85.132 11.2832 85.113 11.2546C85.0749 11.1975 85.0368 11.1404 84.994 11.0833C84.9559 11.0215 84.9226 10.9596 84.8846 10.8977C84.8655 10.8644 84.8465 10.8359 84.8275 10.8026C84.8084 10.7692 84.7941 10.7359 84.7751 10.7026C84.7418 10.636 84.7037 10.5694 84.6752 10.498C84.5467 10.2172 84.442 9.9079 84.3611 9.57954C84.2041 8.92282 84.1755 8.18997 84.2849 7.44283C84.3992 6.6957 84.6514 5.93905 85.0559 5.22998C85.4556 4.52092 86.0076 3.85469 86.7072 3.32646C86.7928 3.25983 86.8833 3.19797 86.9737 3.1361C87.0689 3.079 87.1593 3.01713 87.2544 2.96003C87.44 2.85058 87.6352 2.75064 87.8303 2.66022C88.2252 2.47939 88.6393 2.33662 89.058 2.23193C89.9004 2.0273 90.7712 1.97495 91.6088 2.05585C93.2934 2.20814 94.8638 2.84582 96.1058 3.71192C96.7292 4.14021 97.2765 4.61134 97.7572 5.09198C98.2426 5.56786 98.6566 6.05326 99.0182 6.51486C99.0611 6.57197 99.1087 6.62907 99.1515 6.68618C99.1943 6.74329 99.2371 6.80039 99.28 6.8575C99.3609 6.97171 99.4465 7.0764 99.5227 7.18586C99.5988 7.29531 99.675 7.4 99.7463 7.49994C99.8177 7.60463 99.8843 7.70457 99.951 7.8045C99.9843 7.85209 100.018 7.89968 100.046 7.94727C100.075 7.99485 100.108 8.04244 100.137 8.09003C100.194 8.18045 100.251 8.27087 100.308 8.35652C100.413 8.52784 100.508 8.68964 100.598 8.83241C100.769 9.12269 100.898 9.35112 100.984 9.50816C101.084 9.65568 101.131 9.73658 101.131 9.73658Z" fill="#410C0C"/>
<path d="M84.7606 6.3866C84.7606 6.3866 84.7416 6.45323 84.7035 6.5722C84.694 6.60075 84.6845 6.63882 84.6702 6.67689C84.6607 6.71496 84.6464 6.75779 84.6274 6.80062C84.5941 6.88628 84.556 6.99097 84.5132 7.10043C84.4656 7.20988 84.4085 7.33361 84.3466 7.46685C84.3133 7.53348 84.2752 7.6001 84.2419 7.67148C84.2039 7.74287 84.1658 7.81425 84.123 7.88563C84.0801 7.95701 84.0325 8.03315 83.985 8.11405C83.9374 8.19019 83.8803 8.26633 83.8279 8.34723C83.7994 8.3853 83.7708 8.42813 83.747 8.46621C83.7185 8.50428 83.6851 8.5471 83.6566 8.58518C83.628 8.62325 83.5947 8.66608 83.5614 8.7089C83.5471 8.72794 83.5281 8.75173 83.5138 8.77077C83.4948 8.7898 83.4805 8.80884 83.4615 8.83263C83.1902 9.16099 82.8619 9.49411 82.4764 9.80343C82.0909 10.1128 81.6484 10.4078 81.1487 10.6457C80.649 10.8884 80.097 11.074 79.5164 11.1882C78.9359 11.3025 78.3267 11.3405 77.7128 11.3025C77.0989 11.2644 76.4851 11.1502 75.895 10.9551C75.3049 10.7647 74.7386 10.4935 74.2246 10.1556C74.1628 10.1128 74.0961 10.0699 74.0343 10.0271C73.9724 9.97951 73.9105 9.93668 73.8487 9.88909C73.7297 9.79391 73.6107 9.69874 73.4965 9.5988C73.2681 9.39893 73.0587 9.18003 72.8684 8.94685C72.678 8.71842 72.5019 8.47572 72.3592 8.21875C72.3401 8.18543 72.3211 8.15688 72.3021 8.12357C72.283 8.09026 72.2688 8.05695 72.2497 8.02364C72.2164 7.95701 72.1831 7.89515 72.1498 7.82852C72.0927 7.69528 72.0308 7.56203 71.988 7.42403C71.888 7.15277 71.8262 6.87676 71.7834 6.60551C71.7691 6.4675 71.75 6.33902 71.7453 6.19625C71.7405 6.12487 71.7453 6.05824 71.7453 5.99162C71.75 5.925 71.75 5.85837 71.7548 5.79175C71.7976 5.26352 71.9404 4.80668 72.1165 4.43073C72.2069 4.24038 72.3021 4.07382 72.3972 3.9263C72.4972 3.77877 72.5971 3.65028 72.6923 3.53607C72.8874 3.31241 73.0587 3.16489 73.1729 3.08399C73.3966 2.91267 73.6869 2.74135 74.039 2.62714C74.2151 2.56527 74.4055 2.5272 74.6053 2.50341C74.7053 2.48913 74.8052 2.48438 74.9099 2.48438C74.967 2.48438 75.0193 2.48437 75.0764 2.48913C75.1336 2.48913 75.1859 2.49865 75.243 2.50341C75.6856 2.55576 76.0996 2.72707 76.428 2.96026C76.7611 3.19344 77.0276 3.48848 77.2179 3.80257C77.4083 4.11665 77.5225 4.45452 77.5653 4.76861C77.6081 5.08745 77.5701 5.38249 77.4892 5.60616C77.4083 5.83458 77.2893 5.98686 77.1798 6.06776C77.1561 6.0868 77.1275 6.10583 77.1037 6.12011C77.0799 6.13439 77.0561 6.13914 77.0323 6.14866C76.9895 6.15818 76.9514 6.15342 76.9229 6.13914C76.7991 6.06776 76.7991 5.81555 76.6992 5.53953C76.6516 5.40153 76.5802 5.24925 76.4803 5.10648C76.3804 4.96372 76.2471 4.81619 76.0901 4.69722C75.9378 4.57349 75.757 4.47832 75.5856 4.42121C75.4143 4.36411 75.2525 4.35459 75.124 4.36887C75.1098 4.37362 75.0907 4.37362 75.0764 4.37838C75.0622 4.38314 75.0479 4.3879 75.0336 4.3879C75.0003 4.39742 74.9622 4.40694 74.9289 4.41645C74.8575 4.44025 74.7957 4.46404 74.7338 4.49735C74.6101 4.55922 74.4959 4.6306 74.4007 4.70674C74.3531 4.74481 74.2722 4.80192 74.1723 4.90185C74.1247 4.94944 74.0676 5.01131 74.0105 5.07793C73.9534 5.14931 73.8963 5.23021 73.8439 5.32063C73.7345 5.50622 73.6345 5.74416 73.5822 6.0059C73.5774 6.03921 73.5727 6.07252 73.5679 6.10583C73.5631 6.13914 73.5584 6.17246 73.5584 6.21053C73.5536 6.27715 73.5584 6.35805 73.5536 6.43895C73.5631 6.59599 73.5774 6.76731 73.625 6.93863C73.6393 7.02428 73.6726 7.1147 73.7012 7.20512C73.7202 7.24795 73.7345 7.29554 73.7535 7.33837C73.763 7.36216 73.7678 7.38595 73.7773 7.40499L73.8058 7.47161C73.882 7.65245 73.9867 7.83804 74.1057 8.01888C74.2246 8.19971 74.3626 8.38055 74.5197 8.55186C74.5958 8.63752 74.6815 8.72318 74.7671 8.80408C74.81 8.84215 74.8575 8.88498 74.9004 8.92305C74.9432 8.96588 74.9908 8.99919 75.0384 9.04202C75.4143 9.35134 75.8521 9.62736 76.3233 9.83674C76.7944 10.0509 77.3036 10.2079 77.827 10.2983C78.3505 10.3888 78.8835 10.4173 79.4022 10.3745C79.9209 10.3317 80.4301 10.2222 80.9012 10.0604C81.8482 9.73205 82.6477 9.18479 83.2283 8.62325C83.2473 8.60421 83.2664 8.58993 83.2854 8.5709C83.3044 8.55186 83.3187 8.53283 83.3378 8.51855C83.3711 8.48048 83.4044 8.44717 83.4424 8.41386C83.4758 8.38055 83.5091 8.34248 83.5424 8.30916C83.5757 8.27109 83.6042 8.23778 83.6328 8.20447C83.6947 8.13309 83.7518 8.06646 83.8089 7.99984C83.8612 7.92846 83.9136 7.86184 83.9659 7.79521C84.0183 7.72859 84.0611 7.66197 84.1039 7.6001C84.1468 7.53348 84.1896 7.47161 84.2324 7.41451C84.3085 7.29078 84.3752 7.17657 84.437 7.07663C84.4941 6.97194 84.5417 6.87676 84.5846 6.7911C84.6084 6.74827 84.6226 6.7102 84.6417 6.67689C84.6559 6.63882 84.6702 6.61027 84.6845 6.57696C84.7321 6.44847 84.7606 6.3866 84.7606 6.3866Z" fill="#410C0C"/>
<path d="M72.816 6.0012C72.816 6.0012 72.6304 5.91078 72.2735 5.74422C72.0975 5.65857 71.8738 5.56339 71.6168 5.45394C71.5502 5.42538 71.4836 5.39683 71.4122 5.36828C71.3408 5.33973 71.2694 5.31117 71.1933 5.28262C71.041 5.22551 70.8792 5.15889 70.7126 5.09227C70.0274 4.84005 69.1851 4.55928 68.1905 4.31658C67.2006 4.06912 66.068 3.85973 64.8165 3.71697C63.5649 3.57421 62.1991 3.51234 60.7477 3.53613C59.301 3.56469 57.7687 3.68366 56.1935 3.8978C55.4035 4.0025 54.604 4.13099 53.7998 4.28327C52.9908 4.43555 52.177 4.60211 51.3585 4.79722C50.54 4.98757 49.7167 5.19696 48.8887 5.42538C48.4747 5.5396 48.0607 5.65381 47.6514 5.7823C47.2374 5.90602 46.8234 6.02499 46.4094 6.15348C43.0972 7.16711 39.7851 8.34254 36.5729 9.36568C36.373 9.43231 36.1732 9.49417 35.9733 9.55604C35.7734 9.6179 35.5735 9.67976 35.3737 9.74163C35.1738 9.80349 34.9739 9.86536 34.7788 9.92722C34.6789 9.95578 34.5837 9.98909 34.4838 10.0176C34.3838 10.0462 34.2839 10.0747 34.1887 10.1033C33.7937 10.2175 33.4035 10.3317 33.0133 10.4459C32.6231 10.5554 32.2376 10.6601 31.8521 10.7648C31.6618 10.8171 31.4714 10.8695 31.2811 10.9171C31.0907 10.9646 30.9004 11.0122 30.71 11.0598C30.5197 11.1074 30.3341 11.155 30.1485 11.2026C30.0533 11.2264 29.9629 11.2502 29.8677 11.274C29.7773 11.2978 29.6821 11.3168 29.587 11.3358C29.2158 11.4167 28.8493 11.5024 28.4877 11.5785C28.3972 11.5976 28.3068 11.6214 28.2164 11.6356C28.126 11.6547 28.0356 11.669 27.9452 11.688C27.7643 11.7213 27.5882 11.7546 27.4074 11.7927C27.2313 11.826 27.0553 11.8593 26.8792 11.8926C26.7935 11.9069 26.7031 11.9259 26.6175 11.9402C26.5318 11.9545 26.4414 11.9688 26.3557 11.983C26.0083 12.0354 25.6704 12.0925 25.3373 12.1448C25.2517 12.1591 25.1708 12.1686 25.0899 12.1829C25.009 12.1924 24.9233 12.2019 24.8424 12.2115C24.6759 12.2305 24.5141 12.2495 24.3523 12.2686C24.0287 12.3066 23.7146 12.3447 23.4053 12.3828C22.1632 12.5065 21.0021 12.5493 19.9646 12.4684C18.932 12.3923 18.0325 12.1924 17.333 11.9545C17.2473 11.9259 17.1617 11.8926 17.076 11.8641C16.9951 11.8307 16.9142 11.8022 16.8381 11.7736C16.6858 11.707 16.5478 11.6499 16.4241 11.588C16.3003 11.5262 16.1861 11.4691 16.0862 11.4167C15.9863 11.3596 15.9006 11.3073 15.8245 11.2645C15.7864 11.2407 15.7483 11.2216 15.7102 11.1978C15.6722 11.174 15.6341 11.1502 15.596 11.1217C15.5199 11.0693 15.4438 11.0218 15.3629 10.9694C15.2867 10.9123 15.2106 10.8552 15.1297 10.7981C15.0916 10.7695 15.0488 10.741 15.0107 10.7077C14.9726 10.6744 14.9346 10.641 14.8965 10.6125C14.5824 10.3555 14.2731 10.051 13.9876 9.6988C13.4022 9.00401 12.9216 8.09032 12.7312 7.04814C12.6361 6.51039 12.6408 5.96313 12.7312 5.4349C12.8216 4.90667 12.993 4.39272 13.2404 3.91684C13.4879 3.44572 13.8162 3.00791 14.2112 2.64624C14.6062 2.28457 15.0726 1.99428 15.5722 1.82772L15.6674 1.79441C15.7007 1.78489 15.7293 1.77537 15.7626 1.76586C15.8245 1.74682 15.8863 1.72779 15.9529 1.71827C16.0196 1.70399 16.0767 1.68971 16.1433 1.6802C16.2099 1.67068 16.2765 1.66116 16.3432 1.65164C16.6097 1.62785 16.8666 1.63737 17.1141 1.67544C17.2378 1.69447 17.3568 1.72303 17.4758 1.75158C17.5329 1.77061 17.59 1.78489 17.6471 1.80393C17.7042 1.82296 17.7565 1.842 17.8136 1.86579C18.0278 1.95145 18.2324 2.05138 18.418 2.1656C18.7844 2.39402 19.089 2.67479 19.3269 2.96508C19.5649 3.25536 19.741 3.56945 19.8504 3.86925C19.9646 4.16906 20.017 4.45934 20.0217 4.71156C20.0265 4.96378 19.9884 5.18268 19.9361 5.34924C19.9218 5.39207 19.9075 5.43014 19.8932 5.46345C19.879 5.50153 19.8599 5.53008 19.8457 5.56339C19.8314 5.59194 19.8171 5.6205 19.8028 5.64429C19.7886 5.66808 19.7695 5.68712 19.7552 5.70615C19.6981 5.77754 19.6505 5.81085 19.6172 5.79657C19.5459 5.77278 19.5554 5.58718 19.5268 5.30166C19.5078 5.15889 19.484 4.98757 19.4221 4.80198C19.3603 4.61639 19.2698 4.41652 19.1366 4.21189C19.0033 4.01202 18.832 3.80739 18.6179 3.62655C18.4085 3.44096 18.1515 3.27916 17.8707 3.16019C17.7327 3.09832 17.5852 3.05074 17.4329 3.01742C17.3949 3.00791 17.3568 2.99839 17.3187 2.99363C17.2807 2.98887 17.2426 2.97935 17.2045 2.97459C17.1284 2.96984 17.0522 2.96032 16.9761 2.96032C16.8238 2.96032 16.6763 2.96984 16.5335 3.00315C16.5002 3.01267 16.4621 3.02218 16.4288 3.0317C16.3908 3.04122 16.3527 3.05549 16.3146 3.06977C16.2765 3.07929 16.2385 3.09832 16.2052 3.1126C16.1861 3.12212 16.1671 3.12688 16.1481 3.13639L16.0957 3.16495C15.8054 3.30295 15.5389 3.50758 15.3105 3.76456C15.0821 4.02153 14.8965 4.3261 14.7537 4.65446C14.4777 5.31117 14.4063 6.06307 14.5634 6.69123L14.5776 6.74833C14.5824 6.76737 14.5919 6.79116 14.5967 6.8102C14.611 6.85303 14.6205 6.8911 14.6348 6.93393C14.649 6.972 14.6585 7.01483 14.6728 7.0529C14.6871 7.09097 14.7061 7.1338 14.7204 7.17187C14.7347 7.20994 14.749 7.24801 14.768 7.29084C14.7823 7.32891 14.8061 7.36698 14.8203 7.40505C14.8584 7.48119 14.887 7.55733 14.9346 7.62872C14.9774 7.7001 15.0155 7.77148 15.0583 7.84286C15.1059 7.90949 15.1487 7.98087 15.1963 8.04749C15.2962 8.17598 15.3914 8.30923 15.5009 8.42344C15.715 8.66138 15.9387 8.87552 16.1766 9.06112C16.2052 9.08491 16.2337 9.10871 16.2623 9.1325C16.2908 9.15629 16.3194 9.17533 16.3527 9.19912C16.4098 9.24195 16.4669 9.28478 16.524 9.32285C16.5811 9.36092 16.643 9.39899 16.7001 9.43707C16.7286 9.4561 16.7572 9.47514 16.7857 9.49417C16.8143 9.51321 16.8428 9.52748 16.8714 9.54652C16.9285 9.57983 16.9951 9.6179 17.0665 9.66073C17.1427 9.6988 17.2283 9.74639 17.3187 9.79398C17.4139 9.84157 17.5186 9.88439 17.6281 9.9415C17.6852 9.96529 17.747 9.98909 17.8041 10.0129C17.866 10.0367 17.9279 10.0652 17.9992 10.089C18.5417 10.2889 19.2603 10.4745 20.1407 10.5649C21.0258 10.6601 22.0728 10.6601 23.253 10.5792C23.548 10.5554 23.8526 10.5268 24.1619 10.4983C24.3189 10.484 24.4712 10.4697 24.633 10.4555C24.7139 10.4459 24.7901 10.4412 24.871 10.4317C24.9519 10.4221 25.0328 10.4126 25.1089 10.4031C25.4325 10.365 25.7609 10.3222 26.094 10.2794C26.1796 10.2699 26.2605 10.2603 26.3462 10.2461C26.4319 10.2365 26.5128 10.2223 26.5984 10.208C26.7697 10.1794 26.941 10.1556 27.1124 10.1271C27.2837 10.0985 27.4598 10.0747 27.6358 10.0462C27.7215 10.0319 27.8119 10.0176 27.8976 10.0034C27.988 9.98909 28.0736 9.97005 28.1641 9.95578C28.5162 9.88915 28.8779 9.82253 29.2396 9.75591C29.33 9.73687 29.4204 9.72259 29.5156 9.70356C29.606 9.68452 29.6964 9.66549 29.7916 9.64645C29.9772 9.60838 30.158 9.56555 30.3484 9.52748C30.534 9.48941 30.7195 9.44658 30.9099 9.40851C31.1003 9.37044 31.2858 9.32285 31.4762 9.27527C32.9943 8.92787 34.5694 8.50434 36.1779 8.05701C39.3949 7.15759 42.7593 6.10114 46.1334 5.20172C46.5569 5.08751 46.9804 4.98281 47.3992 4.87336C47.818 4.76391 48.2415 4.66397 48.665 4.55928C49.5074 4.35941 50.3544 4.17857 51.192 4.01678C52.0295 3.85022 52.8623 3.71221 53.6856 3.58848C54.5089 3.46475 55.3274 3.36482 56.1269 3.28868C57.7306 3.13164 59.2867 3.06977 60.7572 3.09357C62.2229 3.12688 63.6077 3.23633 64.864 3.43144C66.1251 3.62179 67.2577 3.87877 68.2476 4.1643C69.2374 4.44983 70.075 4.76391 70.7507 5.03992C70.9173 5.1113 71.0791 5.18268 71.2266 5.24931C71.3027 5.28262 71.3741 5.31117 71.4455 5.34448C71.5121 5.3778 71.5787 5.41111 71.6454 5.43966C71.9023 5.56339 72.1212 5.66332 72.2926 5.7585C72.6304 5.90127 72.816 6.0012 72.816 6.0012Z" fill="#410C0C"/>
<path d="M13.707 8.26562C13.707 8.26562 13.5642 8.32749 13.3072 8.43218C13.1788 8.48453 13.0265 8.55115 12.8456 8.62254C12.6648 8.68916 12.4602 8.7653 12.2365 8.85096C12.1794 8.86999 12.1223 8.89379 12.0652 8.91282C12.0081 8.93186 11.9462 8.95089 11.8844 8.97469C11.7606 9.01752 11.6321 9.06035 11.5036 9.10318C11.2419 9.19359 10.9611 9.27449 10.6661 9.36015C10.0808 9.53147 9.44308 9.68851 8.79112 9.83128C7.48721 10.112 6.12143 10.2738 5.02214 10.3405C4.74613 10.3547 4.4844 10.3643 4.25121 10.3738C4.01327 10.3738 3.79913 10.3785 3.61353 10.3785C3.51836 10.3785 3.4327 10.3785 3.3518 10.3785C3.2709 10.3785 3.19952 10.3738 3.13765 10.369C3.00916 10.3643 2.91399 10.3547 2.85212 10.35C2.73315 10.3357 2.59515 10.3167 2.44762 10.2881C2.3001 10.2548 2.14306 10.212 1.98126 10.1644C1.90036 10.1406 1.81946 10.112 1.7338 10.0883C1.6529 10.0597 1.56724 10.0311 1.48634 9.99783C1.32454 9.93121 1.16274 9.85983 1.01046 9.78845C0.705898 9.64568 0.439404 9.4696 0.253811 9.31256C0.0729756 9.15076 -0.0269596 8.99372 0.00635215 8.85572C0.0396638 8.71771 0.191946 8.61778 0.420369 8.53688C0.648792 8.46074 0.943839 8.41791 1.26268 8.37508C1.42448 8.35604 1.58628 8.34177 1.75284 8.33701C1.83374 8.33225 1.9194 8.32749 2.0003 8.32273C2.0812 8.31797 2.1621 8.31321 2.243 8.31321C2.40004 8.30845 2.55232 8.31321 2.69508 8.31797C2.83309 8.31797 2.96158 8.32749 3.07103 8.33701C3.12813 8.34177 3.21379 8.35604 3.33276 8.37508C3.38987 8.3846 3.45649 8.39887 3.52787 8.40839C3.59926 8.41791 3.68016 8.43218 3.76582 8.44646C3.93713 8.47501 4.13224 8.50357 4.35115 8.54164C4.57006 8.57019 4.808 8.6035 5.06497 8.63681C6.08812 8.76054 7.39203 8.85572 8.67215 8.83192C9.31459 8.81765 9.95228 8.7891 10.5424 8.73675C10.8374 8.7082 11.1277 8.68916 11.3942 8.65109C11.5274 8.63205 11.6607 8.61778 11.7892 8.6035C11.851 8.59398 11.9129 8.58922 11.9748 8.57971C12.0366 8.57019 12.0937 8.56067 12.1556 8.55115C12.3888 8.51308 12.6029 8.47977 12.7933 8.45122C12.9836 8.41791 13.1454 8.3846 13.2787 8.3608C13.5499 8.29418 13.707 8.26562 13.707 8.26562Z" fill="#410C0C"/>
<path d="M105.114 0C105.114 0 105.071 0.0904175 104.986 0.256976C104.943 0.342635 104.891 0.44257 104.834 0.566299C104.772 0.685269 104.691 0.823275 104.61 0.975557C104.267 1.58469 103.729 2.44127 102.94 3.374C102.15 4.30197 101.098 5.30608 99.8082 6.1817C99.161 6.61951 98.4567 7.02401 97.7001 7.37616C96.9434 7.73783 96.1487 8.01384 95.3921 8.31365C95.0113 8.46593 94.6402 8.62297 94.288 8.79429C94.2024 8.83712 94.1119 8.87995 94.0263 8.92754L93.7741 9.0703L93.5314 9.21782C93.4505 9.27017 93.3743 9.32252 93.2982 9.37486C93.1459 9.48432 93.0031 9.59853 92.8699 9.7175C92.8366 9.74605 92.8033 9.77461 92.7699 9.80792L92.6748 9.90309L92.5796 9.99827C92.551 10.0316 92.5225 10.0649 92.4939 10.0934C92.2703 10.3552 92.0894 10.6502 91.9514 10.9596C91.6754 11.5782 91.5755 12.2587 91.6231 12.8821C91.6707 13.5055 91.8705 14.0766 92.1608 14.5144C92.1799 14.5429 92.1989 14.5715 92.2179 14.5953C92.237 14.6238 92.256 14.6476 92.275 14.6762C92.3179 14.7238 92.3559 14.7761 92.394 14.8237C92.4368 14.8713 92.4749 14.9141 92.5177 14.957C92.5415 14.976 92.5606 14.9998 92.5844 15.0188C92.6081 15.0379 92.6272 15.0569 92.651 15.0807C92.8318 15.2377 93.0269 15.371 93.2268 15.4757C93.6265 15.6851 94.031 15.7945 94.3879 15.8421C94.4308 15.8469 94.4736 15.8564 94.5212 15.8564C94.564 15.8611 94.6068 15.8611 94.6497 15.8659C94.7306 15.8659 94.8115 15.8706 94.8876 15.8706C94.9638 15.8706 95.0351 15.8659 95.1018 15.8611C95.1684 15.8516 95.2303 15.8516 95.2921 15.8421C95.5301 15.8088 95.6966 15.7612 95.8013 15.7326C96.0107 15.6755 96.2391 15.5851 96.4675 15.4614C96.5818 15.3948 96.696 15.3234 96.8054 15.2377C96.9149 15.1521 97.0196 15.0521 97.1243 14.9427C97.3241 14.719 97.5097 14.443 97.643 14.1384C97.781 13.8339 97.8762 13.496 97.9237 13.1629C97.9475 12.9963 97.9618 12.8298 97.9618 12.668C97.9618 12.5062 97.9571 12.3491 97.938 12.1968C97.9095 11.897 97.8381 11.6258 97.7667 11.3926C97.6239 10.931 97.4526 10.6312 97.5526 10.5217C97.6001 10.4694 97.7048 10.4742 97.8666 10.5455C98.0237 10.6169 98.2283 10.7549 98.4377 10.9786C98.6471 11.2022 98.8612 11.5021 99.0278 11.878C99.1134 12.0636 99.1801 12.2682 99.2372 12.4871C99.2943 12.706 99.3323 12.9345 99.3561 13.1724C99.399 13.6483 99.3657 14.1575 99.2419 14.6571C99.123 15.1568 98.8993 15.6517 98.6043 16.0848C98.452 16.2989 98.2807 16.4988 98.0998 16.6796C97.9142 16.8605 97.7191 17.0128 97.5192 17.146C97.1195 17.4077 96.715 17.5791 96.3581 17.679C96.182 17.7313 95.887 17.798 95.4968 17.8313C95.4016 17.8408 95.2969 17.8456 95.1874 17.8503C95.078 17.8503 94.9638 17.8551 94.8448 17.8456C94.7258 17.8408 94.6021 17.8313 94.4688 17.817C94.4022 17.8075 94.3404 17.798 94.2737 17.7884C94.2071 17.7789 94.1405 17.7647 94.0691 17.7504C93.5218 17.6457 92.9032 17.4363 92.2988 17.0604C91.999 16.8748 91.6992 16.6416 91.4232 16.3608C91.3899 16.3275 91.3566 16.2894 91.3185 16.2561C91.2852 16.218 91.2519 16.18 91.2186 16.1419C91.152 16.0658 91.0901 15.9849 91.0282 15.904C90.9664 15.8231 90.9092 15.7374 90.8521 15.6517C90.8236 15.6089 90.7998 15.5661 90.7712 15.5185C90.7427 15.4757 90.7189 15.4281 90.6951 15.3852C89.8766 13.9338 89.8338 11.9684 90.7094 10.3361C90.9283 9.93165 91.2043 9.54618 91.5422 9.20831C91.585 9.16548 91.6278 9.12265 91.6707 9.08458L91.7991 8.97037L91.9324 8.85615C91.9752 8.81808 92.0228 8.78477 92.0704 8.75146C92.2512 8.6087 92.4416 8.48021 92.6367 8.36124C92.7366 8.30413 92.8318 8.24703 92.9317 8.18992C93.0317 8.13757 93.1316 8.08523 93.2315 8.03764L93.5361 7.89963C93.6361 7.8568 93.7407 7.81397 93.8407 7.77114C94.2452 7.60934 94.6544 7.47134 95.0589 7.34761C95.8632 7.09539 96.6531 6.89076 97.3812 6.60524C98.1189 6.32922 98.8184 5.99611 99.4704 5.62492C100.77 4.88254 101.864 3.99265 102.711 3.14558C103.553 2.29375 104.153 1.49427 104.543 0.913692C104.638 0.766169 104.729 0.64244 104.8 0.52347C104.872 0.409258 104.929 0.309323 104.976 0.228423C105.067 0.0856587 105.114 0 105.114 0Z" fill="#410C0C"/>
<path d="M69.861 7.15746C69.861 7.15746 69.5516 7.10988 69.0091 7.02422C68.8711 7.00518 68.7236 6.98615 68.5571 6.96235C68.3905 6.93856 68.2144 6.91476 68.0241 6.89573C67.8337 6.87669 67.6291 6.8529 67.4149 6.82911C67.2008 6.81007 66.9724 6.79103 66.7392 6.772C65.7922 6.70062 64.6834 6.65303 63.4889 6.67206C62.2945 6.68634 61.0191 6.77676 59.739 6.9338C59.5772 6.95283 59.4201 6.97187 59.2583 6.99566L58.7777 7.06705L58.5397 7.10036L58.3018 7.14319C58.1448 7.17174 57.983 7.19553 57.8259 7.22409C57.6689 7.25264 57.5118 7.28595 57.3548 7.3145C57.1978 7.34782 57.0407 7.37637 56.8884 7.40492C56.5791 7.47155 56.2793 7.53817 55.989 7.61431C55.4084 7.76659 54.8659 7.95219 54.3948 8.18537C54.1569 8.29958 53.938 8.42807 53.7381 8.56131C53.543 8.69456 53.3669 8.84208 53.2099 8.99437C53.0528 9.14665 52.9148 9.30369 52.7959 9.46549C52.6816 9.62729 52.5865 9.78433 52.5056 9.94137C52.4342 10.0984 52.3723 10.2459 52.3343 10.3887C52.32 10.422 52.32 10.4601 52.3105 10.4934C52.3057 10.5267 52.2914 10.56 52.2914 10.5933C52.2819 10.66 52.2676 10.7218 52.2676 10.7837C52.2629 10.8122 52.2629 10.8455 52.2581 10.8741C52.2581 10.9027 52.2581 10.9264 52.2581 10.955C52.2581 10.9788 52.2581 11.0073 52.2629 11.0311C52.2629 11.0549 52.2676 11.0787 52.2676 11.1025C52.2772 11.1977 52.2962 11.2834 52.3152 11.3643C52.3533 11.5165 52.4009 11.6307 52.4294 11.6974C52.4865 11.8354 52.5627 11.9877 52.6674 12.1399C52.7721 12.2875 52.8958 12.4302 53.0433 12.5397C53.1147 12.592 53.1956 12.6396 53.2813 12.6777C53.3717 12.7158 53.4335 12.7396 53.5192 12.7586C53.6858 12.7871 53.8999 12.7681 54.1045 12.692C54.3092 12.6206 54.5043 12.5016 54.6566 12.3684C54.8136 12.2351 54.9278 12.0876 55.0182 11.9448C55.1039 11.8021 55.1562 11.6641 55.2038 11.5546C55.2133 11.5261 55.2276 11.5023 55.2371 11.4785C55.2467 11.4547 55.2609 11.4356 55.2704 11.4166C55.2942 11.3785 55.3228 11.3547 55.3561 11.3405C55.3894 11.3309 55.4275 11.3357 55.4703 11.3595C55.4893 11.369 55.5131 11.388 55.5369 11.4071C55.5607 11.4261 55.5798 11.4547 55.6036 11.4832C55.694 11.6022 55.7796 11.8068 55.7939 12.0828C55.8082 12.3541 55.7511 12.6872 55.594 13.0108C55.437 13.3344 55.1943 13.658 54.8564 13.9197C54.6899 14.053 54.4948 14.1672 54.2854 14.2576C54.0712 14.348 53.838 14.4147 53.5858 14.4432C53.524 14.448 53.4621 14.4575 53.3955 14.4575C53.3336 14.4575 53.267 14.4622 53.2004 14.4575C53.0671 14.448 52.9481 14.4384 52.8292 14.4147C52.5912 14.3718 52.358 14.2909 52.1487 14.191C51.7204 13.9911 51.373 13.7008 51.1112 13.3963C50.8495 13.0917 50.6687 12.7729 50.5497 12.4873C50.4926 12.3446 50.4022 12.1066 50.3403 11.7735C50.3118 11.607 50.288 11.4166 50.2832 11.2072C50.2832 11.1549 50.2832 11.0978 50.2832 11.0454C50.2832 10.9883 50.288 10.9312 50.2927 10.8741C50.2975 10.817 50.3022 10.7551 50.3118 10.698C50.3213 10.6409 50.3308 10.5838 50.3403 10.5219C50.3546 10.403 50.3879 10.284 50.4165 10.1603C50.4307 10.0984 50.4545 10.0365 50.4736 9.97468C50.4926 9.91282 50.5116 9.85095 50.5354 9.78909C50.6258 9.54163 50.7496 9.29417 50.8971 9.04671C51.0446 8.80401 51.2207 8.56607 51.4206 8.34241C51.6204 8.11874 51.8441 7.9046 52.0916 7.70949C52.339 7.51437 52.6055 7.32878 52.891 7.17174C53.1766 7.0147 53.4716 6.88145 53.7809 6.76248C54.3996 6.5293 55.0468 6.37702 55.6987 6.26756C56.0271 6.21522 56.3507 6.17239 56.6791 6.13432C56.8409 6.11528 57.0074 6.10101 57.1692 6.08673C57.3358 6.07245 57.4976 6.05342 57.6641 6.03914C57.8307 6.02487 57.9972 6.01535 58.159 6.00107L58.4065 5.98204L58.654 5.96776L59.1536 5.94397C59.3202 5.93445 59.4868 5.93445 59.6533 5.92969C60.981 5.89638 62.2897 5.93445 63.5032 6.03914C64.7167 6.13908 65.8303 6.30088 66.7677 6.46743C67.0009 6.51026 67.2293 6.55309 67.4435 6.59592C67.6576 6.63875 67.8575 6.68158 68.0479 6.72441C68.2382 6.76248 68.4143 6.80531 68.5761 6.84338C68.7379 6.88145 68.8854 6.91952 69.0187 6.94808C69.5564 7.07656 69.861 7.15746 69.861 7.15746Z" fill="#410C0C"/>
<path d="M103.615 8.16113C103.615 8.16113 103.634 8.22776 103.677 8.34673C103.696 8.40859 103.725 8.48473 103.748 8.57039C103.772 8.66081 103.801 8.7655 103.834 8.87971C103.863 8.99868 103.891 9.12717 103.925 9.26994C103.939 9.34132 103.953 9.41746 103.967 9.4936C103.982 9.56974 103.996 9.65064 104.01 9.7363C104.024 9.82196 104.034 9.90762 104.048 9.99328C104.058 10.0837 104.067 10.1741 104.082 10.2693C104.086 10.3169 104.091 10.3645 104.096 10.4121C104.101 10.4596 104.105 10.512 104.105 10.5596C104.11 10.6595 104.124 10.7642 104.124 10.8689C104.167 11.7064 104.096 12.7058 103.853 13.7575C103.729 14.281 103.568 14.8235 103.354 15.3565C103.139 15.8894 102.878 16.4224 102.573 16.9364C102.268 17.4503 101.912 17.9405 101.521 18.3973C101.126 18.8542 100.693 19.273 100.236 19.6442C99.318 20.3865 98.3092 20.9243 97.3717 21.2812C96.9006 21.462 96.4485 21.5953 96.0297 21.7C95.6109 21.7999 95.2255 21.8713 94.8828 21.9141C94.2023 22.0045 93.7121 22.0045 93.4932 22.0045C93.0554 21.995 92.4796 21.9236 91.88 21.7666C91.2804 21.6143 90.6617 21.3764 90.1335 21.0956C89.6005 20.8148 89.1627 20.4865 88.882 20.2009C88.8106 20.1296 88.7487 20.0629 88.7011 19.9963C88.6535 19.9297 88.6107 19.8726 88.5821 19.8155C88.525 19.706 88.5108 19.6204 88.5488 19.5585C88.5869 19.4966 88.6678 19.4681 88.7915 19.4633C88.8534 19.4586 88.92 19.4633 88.9962 19.4681C89.0723 19.4776 89.158 19.4824 89.2484 19.4966C89.6148 19.5537 90.0907 19.6537 90.6046 19.7346C91.1186 19.8202 91.6754 19.8821 92.1893 19.9202C92.7033 19.9582 93.1839 19.963 93.5456 19.9725C93.7264 19.9725 94.1309 20.0058 94.702 19.9773C94.9875 19.9678 95.3159 19.9344 95.6775 19.8916C96.0392 19.8393 96.4294 19.7631 96.8387 19.6537C97.662 19.4348 98.5661 19.0731 99.418 18.5211C99.8463 18.2451 100.26 17.9262 100.651 17.5646C101.041 17.2029 101.402 16.7984 101.731 16.3701C102.059 15.9418 102.354 15.4849 102.606 15.0138C102.859 14.5427 103.068 14.0621 103.239 13.5814C103.577 12.6249 103.753 11.6779 103.81 10.8689C103.867 10.0551 103.815 9.36987 103.753 8.89875C103.734 8.77978 103.72 8.67508 103.706 8.58467C103.691 8.49425 103.672 8.41811 103.663 8.35149C103.63 8.22776 103.615 8.16113 103.615 8.16113Z" fill="#410C0C"/>
<path d="M77.4087 7.48597C77.4087 7.48597 77.5134 7.45266 77.6895 7.39555C77.7323 7.37652 77.7799 7.35748 77.8322 7.33845C77.8846 7.31465 77.9417 7.29562 77.9988 7.26706C78.0559 7.23851 78.1178 7.20996 78.1844 7.17665C78.2177 7.16237 78.251 7.14334 78.2843 7.1243C78.3176 7.10526 78.3509 7.08623 78.3842 7.06719C78.6555 6.90539 78.9505 6.68649 79.217 6.40572C79.4883 6.12971 79.7262 5.79659 79.9071 5.44444C79.9166 5.42064 79.9309 5.40161 79.9404 5.37782L79.9689 5.31119L80.0308 5.17795C80.0689 5.08753 80.0974 4.99235 80.1307 4.90669C80.1545 4.81152 80.1831 4.7211 80.2021 4.63068C80.2116 4.58309 80.2212 4.54026 80.2307 4.49268C80.2402 4.44985 80.2497 4.40226 80.2545 4.35943C80.3021 4.00252 80.2878 3.66464 80.2449 3.37435C80.2402 3.33628 80.2307 3.30297 80.2259 3.2649C80.2212 3.23159 80.2164 3.19352 80.2069 3.16021C80.1926 3.09358 80.1783 3.03172 80.1593 2.96986C80.1212 2.85088 80.0927 2.74143 80.0546 2.65101C80.0356 2.60343 80.0213 2.5606 80.007 2.52253C79.9927 2.48446 79.9737 2.45114 79.9642 2.41783C79.9404 2.35597 79.9261 2.30838 79.9118 2.27983C79.8928 2.22272 79.8738 2.1561 79.8595 2.0752C79.8404 1.99906 79.8262 1.9134 79.8119 1.82298C79.8024 1.78015 79.7929 1.73256 79.7881 1.68498C79.7786 1.63739 79.7786 1.5898 79.7643 1.54221C79.7453 1.44703 79.7358 1.34234 79.7215 1.24716C79.712 1.19958 79.7072 1.14723 79.7024 1.09488C79.6977 1.04254 79.6882 0.999706 79.6834 0.947359C79.6739 0.852182 79.6691 0.752247 79.6691 0.666589C79.6691 0.490513 79.6977 0.333472 79.7976 0.228778C79.8928 0.128843 80.0498 0.0955309 80.2497 0.124084C80.3496 0.13836 80.4543 0.176431 80.5638 0.224019C80.6161 0.247813 80.678 0.276366 80.7303 0.309678C80.7875 0.342989 80.8398 0.376301 80.8969 0.41913C81.0111 0.495271 81.111 0.590448 81.2157 0.685624C81.2681 0.733212 81.3157 0.785559 81.3585 0.842665C81.4061 0.895012 81.4489 0.952118 81.4918 1.00446C81.5727 1.11392 81.644 1.22813 81.7011 1.33758C81.7535 1.44703 81.8011 1.55173 81.8344 1.64215C81.8534 1.68973 81.8677 1.76587 81.8915 1.86581C81.901 1.91816 81.9153 1.97526 81.9248 2.03713C81.9343 2.09899 81.9438 2.17037 81.9534 2.24652C81.9772 2.39404 81.9772 2.57011 81.9867 2.76047C81.9819 2.85564 81.9819 2.95558 81.9772 3.05551C81.9772 3.10786 81.9724 3.16021 81.9676 3.21255C81.9629 3.2649 81.9581 3.31725 81.9534 3.37435C81.901 3.81217 81.7868 4.29281 81.5774 4.75917C81.5536 4.81628 81.5251 4.87338 81.4965 4.93049C81.468 4.98759 81.4394 5.0447 81.4061 5.1018C81.3442 5.21602 81.2729 5.32071 81.2062 5.43016C81.1301 5.53486 81.0587 5.63955 80.9778 5.73948L80.8541 5.88701L80.7922 5.95839C80.7732 5.98218 80.7494 6.00598 80.7256 6.02501C80.3782 6.39144 79.988 6.68649 79.5977 6.90064C79.2123 7.11954 78.8268 7.25755 78.4985 7.33845C78.4556 7.34796 78.4176 7.35748 78.3795 7.367C78.3414 7.37652 78.3033 7.38603 78.2653 7.39079C78.1891 7.40507 78.1178 7.41459 78.0511 7.42886C78.0178 7.43362 77.9845 7.43838 77.956 7.44314C77.9226 7.4479 77.8941 7.4479 77.8655 7.45266C77.8084 7.45742 77.7561 7.46218 77.7085 7.46693C77.5181 7.48121 77.4087 7.48597 77.4087 7.48597Z" fill="#410C0C"/>
<path d="M11.7892 7.15681C11.7892 7.15681 5.55042 7.30433 4.98412 7.22343C4.42258 7.14253 3.20909 6.51437 3.28999 5.96235C3.36613 5.40557 4.70335 5.13431 5.26965 5.21521C5.83119 5.29135 11.7892 7.15681 11.7892 7.15681Z" fill="#410C0C"/>
<path d="M110.144 9.73658C110.144 9.73658 110.197 9.65568 110.297 9.50816C110.397 9.36063 110.544 9.14173 110.739 8.87048C110.839 8.73723 110.949 8.58495 111.067 8.42315C111.129 8.34225 111.191 8.26135 111.258 8.17093C111.291 8.1281 111.324 8.08527 111.358 8.03768C111.391 7.99485 111.429 7.94727 111.467 7.90444C111.539 7.81402 111.615 7.71884 111.691 7.62367C111.772 7.52849 111.853 7.43331 111.938 7.32862C112.019 7.22868 112.11 7.12875 112.2 7.02406C112.248 6.97171 112.291 6.91936 112.338 6.86702C112.386 6.81467 112.433 6.76232 112.481 6.70997C112.871 6.2912 113.314 5.85339 113.818 5.42985C114.323 5.01108 114.879 4.60182 115.498 4.24491C115.655 4.15925 115.812 4.07359 115.969 3.98793C116.131 3.90703 116.293 3.83089 116.459 3.75951C116.792 3.61674 117.14 3.49302 117.497 3.38832C118.206 3.18369 118.958 3.06472 119.705 3.05996C120.452 3.05045 121.194 3.1599 121.88 3.38356C122.222 3.49777 122.546 3.64054 122.855 3.81186C123.007 3.89751 123.155 3.98793 123.298 4.08787C123.369 4.13546 123.431 4.1878 123.498 4.23539C123.559 4.28774 123.626 4.34008 123.688 4.39719C124.183 4.83976 124.568 5.38227 124.83 5.94381C125.096 6.5101 125.239 7.09544 125.282 7.63794C125.32 8.18045 125.263 8.68012 125.13 9.0989C125.063 9.30829 124.982 9.49388 124.892 9.6652C124.868 9.70803 124.844 9.7461 124.82 9.78893C124.811 9.80796 124.797 9.827 124.787 9.84603C124.773 9.86507 124.763 9.8841 124.749 9.90314C124.725 9.94121 124.701 9.97452 124.678 10.0126C124.649 10.0459 124.625 10.0792 124.602 10.1125C124.587 10.1268 124.578 10.1458 124.563 10.1601C124.549 10.1744 124.54 10.1887 124.525 10.2029C124.502 10.2315 124.478 10.2601 124.449 10.2838C124.402 10.3362 124.349 10.3838 124.297 10.4314C124.197 10.5218 124.097 10.5932 124.007 10.655C123.821 10.7788 123.674 10.8501 123.583 10.893C123.402 10.9834 123.183 11.0643 122.945 11.1214C122.708 11.1737 122.455 11.1975 122.213 11.1642C122.089 11.1452 121.97 11.1166 121.856 11.0738C121.827 11.0643 121.799 11.05 121.77 11.0357C121.756 11.031 121.746 11.0215 121.732 11.0167C121.722 11.0119 121.708 11.0072 121.699 11.0024C121.675 10.9929 121.656 10.9739 121.632 10.9644C121.608 10.9501 121.589 10.931 121.565 10.9168C121.394 10.7835 121.237 10.5551 121.142 10.2934C121.047 10.0316 121.013 9.7461 121.028 9.48912C121.042 9.23215 121.109 9.01324 121.194 8.83241C121.28 8.65633 121.394 8.51832 121.485 8.40887C121.508 8.38508 121.527 8.35652 121.546 8.33273C121.565 8.30894 121.58 8.2899 121.594 8.26611C121.618 8.22328 121.627 8.18521 121.623 8.1519C121.613 8.11858 121.589 8.09003 121.542 8.06624C121.518 8.05672 121.489 8.0472 121.456 8.03768C121.423 8.02817 121.385 8.02817 121.337 8.02817C121.313 8.02817 121.289 8.02817 121.266 8.02817C121.242 8.03292 121.218 8.03292 121.189 8.03768C121.161 8.04244 121.137 8.0472 121.104 8.05196C121.075 8.06148 121.047 8.071 121.018 8.08051C120.894 8.11858 120.766 8.18521 120.628 8.28038C120.361 8.47074 120.1 8.78482 119.938 9.1798C119.771 9.57478 119.69 10.0459 119.733 10.5456C119.757 10.7978 119.809 11.0548 119.905 11.3117C120 11.5687 120.143 11.8257 120.328 12.0541C120.376 12.1112 120.428 12.1683 120.48 12.2207C120.538 12.273 120.59 12.3254 120.647 12.3777C120.676 12.4015 120.709 12.4253 120.737 12.4491C120.766 12.4729 120.799 12.4967 120.828 12.5157C120.885 12.5538 120.942 12.5966 121.004 12.6347C121.242 12.7822 121.504 12.8964 121.765 12.9726C122.294 13.1296 122.822 13.1391 123.279 13.0773C123.74 13.0106 124.14 12.8774 124.459 12.7204C124.621 12.6442 124.878 12.5062 125.182 12.2778C125.334 12.1636 125.501 12.0256 125.668 11.8543C125.753 11.7686 125.839 11.6782 125.92 11.5782C125.963 11.5259 126.005 11.4783 126.043 11.4212C126.063 11.3926 126.086 11.3641 126.105 11.3403C126.124 11.3117 126.143 11.2832 126.162 11.2546C126.201 11.1975 126.239 11.1404 126.281 11.0833C126.319 11.0215 126.353 10.9596 126.391 10.8977C126.41 10.8644 126.429 10.8359 126.448 10.8026C126.467 10.7692 126.481 10.7359 126.5 10.7026C126.534 10.636 126.572 10.5694 126.6 10.498C126.729 10.2172 126.833 9.9079 126.914 9.57954C127.071 8.92282 127.1 8.18997 126.99 7.44283C126.876 6.6957 126.624 5.93905 126.22 5.22998C125.82 4.52092 125.268 3.85469 124.568 3.32646C124.483 3.25983 124.392 3.19797 124.302 3.1361C124.207 3.079 124.116 3.01713 124.021 2.96003C123.835 2.85058 123.64 2.75064 123.445 2.66022C123.05 2.47939 122.636 2.33662 122.217 2.23193C121.375 2.0273 120.504 1.97495 119.667 2.05585C117.982 2.20814 116.412 2.84582 115.17 3.71192C114.546 4.14021 113.999 4.61134 113.518 5.09198C113.033 5.56786 112.619 6.05326 112.257 6.51486C112.214 6.57197 112.167 6.62907 112.124 6.68618C112.081 6.74329 112.038 6.80039 111.995 6.8575C111.915 6.97171 111.829 7.0764 111.753 7.18586C111.677 7.29531 111.6 7.4 111.529 7.49994C111.458 7.60463 111.391 7.70457 111.324 7.8045C111.291 7.85209 111.258 7.89968 111.229 7.94727C111.201 7.99485 111.167 8.04244 111.139 8.09003C111.082 8.18045 111.025 8.27087 110.968 8.35652C110.863 8.52784 110.768 8.68964 110.677 8.83241C110.506 9.12269 110.377 9.35112 110.292 9.50816C110.192 9.65568 110.144 9.73658 110.144 9.73658Z" fill="#410C0C"/>
<path d="M126.515 6.3866C126.515 6.3866 126.534 6.45323 126.572 6.5722C126.581 6.60075 126.591 6.63882 126.605 6.67689C126.615 6.71496 126.629 6.75779 126.648 6.80062C126.681 6.88628 126.719 6.99097 126.762 7.10043C126.81 7.20988 126.867 7.33361 126.929 7.46685C126.962 7.53348 127 7.6001 127.033 7.67148C127.071 7.74287 127.109 7.81425 127.152 7.88563C127.195 7.95701 127.243 8.03315 127.29 8.11405C127.338 8.19019 127.395 8.26633 127.447 8.34723C127.476 8.3853 127.504 8.42813 127.528 8.46621C127.557 8.50428 127.59 8.5471 127.619 8.58518C127.647 8.62325 127.681 8.66608 127.714 8.7089C127.728 8.72794 127.747 8.75173 127.761 8.77077C127.78 8.7898 127.795 8.80884 127.814 8.83263C128.085 9.16099 128.413 9.49411 128.799 9.80343C129.184 10.1128 129.627 10.4078 130.127 10.6457C130.626 10.8884 131.178 11.074 131.759 11.1882C132.339 11.3025 132.949 11.3405 133.562 11.3025C134.176 11.2644 134.79 11.1502 135.38 10.9551C135.97 10.7647 136.537 10.4935 137.051 10.1556C137.113 10.1128 137.179 10.0699 137.241 10.0271C137.303 9.97951 137.365 9.93668 137.427 9.88909C137.546 9.79391 137.665 9.69874 137.779 9.5988C138.007 9.39893 138.217 9.18003 138.407 8.94685C138.597 8.71842 138.773 8.47572 138.916 8.21875C138.935 8.18543 138.954 8.15688 138.973 8.12357C138.992 8.09026 139.007 8.05695 139.026 8.02364C139.059 7.95701 139.092 7.89515 139.126 7.82852C139.183 7.69528 139.244 7.56203 139.287 7.42403C139.387 7.15277 139.449 6.87676 139.492 6.60551C139.506 6.4675 139.525 6.33902 139.53 6.19625C139.535 6.12487 139.53 6.05824 139.53 5.99162C139.525 5.925 139.525 5.85837 139.52 5.79175C139.478 5.26352 139.335 4.80668 139.159 4.43073C139.068 4.24038 138.973 4.07382 138.878 3.9263C138.778 3.77877 138.678 3.65028 138.583 3.53607C138.388 3.31241 138.217 3.16489 138.102 3.08399C137.879 2.91267 137.588 2.74135 137.236 2.62714C137.06 2.56527 136.87 2.5272 136.67 2.50341C136.57 2.48913 136.47 2.48438 136.365 2.48438C136.308 2.48438 136.256 2.48437 136.199 2.48913C136.142 2.48913 136.089 2.49865 136.032 2.50341C135.59 2.55576 135.176 2.72707 134.847 2.96026C134.514 3.19344 134.248 3.48848 134.057 3.80257C133.867 4.11665 133.753 4.45452 133.71 4.76861C133.667 5.08745 133.705 5.38249 133.786 5.60616C133.867 5.83458 133.986 5.98686 134.095 6.06776C134.119 6.0868 134.148 6.10583 134.172 6.12011C134.195 6.13439 134.219 6.13914 134.243 6.14866C134.286 6.15818 134.324 6.15342 134.352 6.13914C134.476 6.06776 134.476 5.81555 134.576 5.53953C134.624 5.40153 134.695 5.24925 134.795 5.10648C134.895 4.96372 135.028 4.81619 135.185 4.69722C135.337 4.57349 135.518 4.47832 135.69 4.42121C135.861 4.36411 136.023 4.35459 136.151 4.36887C136.166 4.37362 136.185 4.37362 136.199 4.37838C136.213 4.38314 136.227 4.3879 136.242 4.3879C136.275 4.39742 136.313 4.40694 136.346 4.41645C136.418 4.44025 136.48 4.46404 136.541 4.49735C136.665 4.55922 136.779 4.6306 136.875 4.70674C136.922 4.74481 137.003 4.80192 137.103 4.90185C137.151 4.94944 137.208 5.01131 137.265 5.07793C137.322 5.14931 137.379 5.23021 137.431 5.32063C137.541 5.50622 137.641 5.74416 137.693 6.0059C137.698 6.03921 137.703 6.07252 137.707 6.10583C137.712 6.13914 137.717 6.17246 137.717 6.21053C137.722 6.27715 137.717 6.35805 137.722 6.43895C137.712 6.59599 137.698 6.76731 137.65 6.93863C137.636 7.02428 137.603 7.1147 137.574 7.20512C137.555 7.24795 137.541 7.29554 137.522 7.33837C137.512 7.36216 137.508 7.38595 137.498 7.40499L137.469 7.47161C137.393 7.65245 137.289 7.83804 137.17 8.01888C137.051 8.19971 136.913 8.38055 136.756 8.55186C136.679 8.63752 136.594 8.72318 136.508 8.80408C136.465 8.84215 136.418 8.88498 136.375 8.92305C136.332 8.96588 136.284 8.99919 136.237 9.04202C135.861 9.35134 135.423 9.62736 134.952 9.83674C134.481 10.0509 133.972 10.2079 133.448 10.2983C132.925 10.3888 132.392 10.4173 131.873 10.3745C131.354 10.3317 130.845 10.2222 130.374 10.0604C129.427 9.73205 128.628 9.18479 128.047 8.62325C128.028 8.60421 128.009 8.58993 127.99 8.5709C127.971 8.55186 127.957 8.53283 127.938 8.51855C127.904 8.48048 127.871 8.44717 127.833 8.41386C127.8 8.38055 127.766 8.34248 127.733 8.30916C127.7 8.27109 127.671 8.23778 127.642 8.20447C127.581 8.13309 127.524 8.06646 127.466 7.99984C127.414 7.92846 127.362 7.86184 127.309 7.79521C127.257 7.72859 127.214 7.66197 127.171 7.6001C127.129 7.53348 127.086 7.47161 127.043 7.41451C126.967 7.29078 126.9 7.17657 126.838 7.07663C126.781 6.97194 126.734 6.87676 126.691 6.7911C126.667 6.74827 126.653 6.7102 126.634 6.67689C126.619 6.63882 126.605 6.61027 126.591 6.57696C126.543 6.44847 126.515 6.3866 126.515 6.3866Z" fill="#410C0C"/>
<path d="M138.459 6.0012C138.459 6.0012 138.645 5.91078 139.002 5.74422C139.178 5.65857 139.402 5.56339 139.659 5.45394C139.725 5.42538 139.792 5.39683 139.863 5.36828C139.935 5.33973 140.006 5.31117 140.082 5.28262C140.235 5.22551 140.396 5.15889 140.563 5.09227C141.248 4.84005 142.09 4.55928 143.085 4.31658C144.075 4.06912 145.207 3.85973 146.459 3.71697C147.711 3.57421 149.076 3.51234 150.528 3.53613C151.974 3.56469 153.507 3.68366 155.082 3.8978C155.872 4.0025 156.671 4.13099 157.476 4.28327C158.285 4.43555 159.098 4.60211 159.917 4.79722C160.735 4.98757 161.559 5.19696 162.387 5.42538C162.801 5.5396 163.215 5.65381 163.624 5.7823C164.038 5.90602 164.452 6.02499 164.866 6.15348C168.178 7.16711 171.49 8.34254 174.703 9.36568C174.902 9.43231 175.102 9.49417 175.302 9.55604C175.502 9.6179 175.702 9.67976 175.902 9.74163C176.102 9.80349 176.302 9.86536 176.497 9.92722C176.597 9.95578 176.692 9.98909 176.792 10.0176C176.892 10.0462 176.992 10.0747 177.087 10.1033C177.482 10.2175 177.872 10.3317 178.262 10.4459C178.652 10.5554 179.038 10.6601 179.423 10.7648C179.614 10.8171 179.804 10.8695 179.994 10.9171C180.185 10.9646 180.375 11.0122 180.565 11.0598C180.756 11.1074 180.941 11.155 181.127 11.2026C181.222 11.2264 181.313 11.2502 181.408 11.274C181.498 11.2978 181.593 11.3168 181.689 11.3358C182.06 11.4167 182.426 11.5024 182.788 11.5785C182.878 11.5976 182.969 11.6214 183.059 11.6356C183.149 11.6547 183.24 11.669 183.33 11.688C183.511 11.7213 183.687 11.7546 183.868 11.7927C184.044 11.826 184.22 11.8593 184.396 11.8926C184.482 11.9069 184.572 11.9259 184.658 11.9402C184.744 11.9545 184.834 11.9688 184.92 11.983C185.267 12.0354 185.605 12.0925 185.938 12.1448C186.024 12.1591 186.105 12.1686 186.186 12.1829C186.267 12.1924 186.352 12.2019 186.433 12.2115C186.6 12.2305 186.761 12.2495 186.923 12.2686C187.247 12.3066 187.561 12.3447 187.87 12.3828C189.112 12.5065 190.273 12.5493 191.311 12.4684C192.344 12.3923 193.243 12.1924 193.942 11.9545C194.028 11.9259 194.114 11.8926 194.199 11.8641C194.28 11.8307 194.361 11.8022 194.437 11.7736C194.59 11.707 194.728 11.6499 194.851 11.588C194.975 11.5262 195.089 11.4691 195.189 11.4167C195.289 11.3596 195.375 11.3073 195.451 11.2645C195.489 11.2407 195.527 11.2216 195.565 11.1978C195.603 11.174 195.641 11.1502 195.679 11.1217C195.756 11.0693 195.832 11.0218 195.913 10.9694C195.989 10.9123 196.065 10.8552 196.146 10.7981C196.184 10.7695 196.227 10.741 196.265 10.7077C196.303 10.6744 196.341 10.641 196.379 10.6125C196.693 10.3555 197.002 10.051 197.288 9.6988C197.873 9.00401 198.354 8.09032 198.544 7.04814C198.639 6.51039 198.635 5.96313 198.544 5.4349C198.454 4.90667 198.283 4.39272 198.035 3.91684C197.788 3.44572 197.459 3.00791 197.064 2.64624C196.669 2.28457 196.203 1.99428 195.703 1.82772L195.608 1.79441C195.575 1.78489 195.546 1.77537 195.513 1.76586C195.451 1.74682 195.389 1.72779 195.323 1.71827C195.256 1.70399 195.199 1.68971 195.132 1.6802C195.066 1.67068 194.999 1.66116 194.932 1.65164C194.666 1.62785 194.409 1.63737 194.161 1.67544C194.038 1.69447 193.919 1.72303 193.8 1.75158C193.743 1.77061 193.686 1.78489 193.628 1.80393C193.571 1.82296 193.519 1.842 193.462 1.86579C193.248 1.95145 193.043 2.05138 192.857 2.1656C192.491 2.39402 192.186 2.67479 191.949 2.96508C191.711 3.25536 191.535 3.56945 191.425 3.86925C191.311 4.16906 191.259 4.45934 191.254 4.71156C191.249 4.96378 191.287 5.18268 191.339 5.34924C191.354 5.39207 191.368 5.43014 191.382 5.46345C191.397 5.50153 191.416 5.53008 191.43 5.56339C191.444 5.59194 191.458 5.6205 191.473 5.64429C191.487 5.66808 191.506 5.68712 191.52 5.70615C191.577 5.77754 191.625 5.81085 191.658 5.79657C191.73 5.77278 191.72 5.58718 191.749 5.30166C191.768 5.15889 191.792 4.98757 191.853 4.80198C191.915 4.61639 192.006 4.41652 192.139 4.21189C192.272 4.01202 192.443 3.80739 192.658 3.62655C192.867 3.44096 193.124 3.27916 193.405 3.16019C193.543 3.09832 193.69 3.05074 193.843 3.01742C193.881 3.00791 193.919 2.99839 193.957 2.99363C193.995 2.98887 194.033 2.97935 194.071 2.97459C194.147 2.96984 194.223 2.96032 194.299 2.96032C194.452 2.96032 194.599 2.96984 194.742 3.00315C194.775 3.01267 194.813 3.02218 194.847 3.0317C194.885 3.04122 194.923 3.05549 194.961 3.06977C194.999 3.07929 195.037 3.09832 195.07 3.1126C195.089 3.12212 195.108 3.12688 195.127 3.13639L195.18 3.16495C195.47 3.30295 195.737 3.50758 195.965 3.76456C196.193 4.02153 196.379 4.3261 196.522 4.65446C196.798 5.31117 196.869 6.06307 196.712 6.69123L196.698 6.74833C196.693 6.76737 196.684 6.79116 196.679 6.8102C196.665 6.85303 196.655 6.8911 196.641 6.93393C196.626 6.972 196.617 7.01483 196.603 7.0529C196.588 7.09097 196.569 7.1338 196.555 7.17187C196.541 7.20994 196.527 7.24801 196.507 7.29084C196.493 7.32891 196.469 7.36698 196.455 7.40505C196.417 7.48119 196.389 7.55733 196.341 7.62872C196.298 7.7001 196.26 7.77148 196.217 7.84286C196.17 7.90949 196.127 7.98087 196.079 8.04749C195.979 8.17598 195.884 8.30923 195.775 8.42344C195.56 8.66138 195.337 8.87552 195.099 9.06112C195.07 9.08491 195.042 9.10871 195.013 9.1325C194.985 9.15629 194.956 9.17533 194.923 9.19912C194.866 9.24195 194.809 9.28478 194.751 9.32285C194.694 9.36092 194.633 9.39899 194.575 9.43707C194.547 9.4561 194.518 9.47514 194.49 9.49417C194.461 9.51321 194.433 9.52748 194.404 9.54652C194.347 9.57983 194.28 9.6179 194.209 9.66073C194.133 9.6988 194.047 9.74639 193.957 9.79398C193.862 9.84157 193.757 9.88439 193.647 9.9415C193.59 9.96529 193.528 9.98909 193.471 10.0129C193.41 10.0367 193.348 10.0652 193.276 10.089C192.734 10.2889 192.015 10.4745 191.135 10.5649C190.25 10.6601 189.203 10.6601 188.023 10.5792C187.727 10.5554 187.423 10.5268 187.114 10.4983C186.957 10.484 186.804 10.4697 186.642 10.4555C186.562 10.4459 186.485 10.4412 186.405 10.4317C186.324 10.4221 186.243 10.4126 186.167 10.4031C185.843 10.365 185.515 10.3222 185.182 10.2794C185.096 10.2699 185.015 10.2603 184.929 10.2461C184.844 10.2365 184.763 10.2223 184.677 10.208C184.506 10.1794 184.334 10.1556 184.163 10.1271C183.992 10.0985 183.816 10.0747 183.64 10.0462C183.554 10.0319 183.464 10.0176 183.378 10.0034C183.288 9.98909 183.202 9.97005 183.111 9.95578C182.759 9.88915 182.398 9.82253 182.036 9.75591C181.946 9.73687 181.855 9.72259 181.76 9.70356C181.67 9.68452 181.579 9.66549 181.484 9.64645C181.298 9.60838 181.117 9.56555 180.927 9.52748C180.742 9.48941 180.556 9.44658 180.366 9.40851C180.175 9.37044 179.99 9.32285 179.799 9.27527C178.281 8.92787 176.706 8.50434 175.098 8.05701C171.881 7.15759 168.516 6.10114 165.142 5.20172C164.719 5.08751 164.295 4.98281 163.876 4.87336C163.458 4.76391 163.034 4.66397 162.61 4.55928C161.768 4.35941 160.921 4.17857 160.084 4.01678C159.246 3.85022 158.413 3.71221 157.59 3.58848C156.767 3.46475 155.948 3.36482 155.149 3.28868C153.545 3.13164 151.989 3.06977 150.518 3.09357C149.053 3.12688 147.668 3.23633 146.411 3.43144C145.15 3.62179 144.018 3.87877 143.028 4.1643C142.038 4.44983 141.201 4.76391 140.525 5.03992C140.358 5.1113 140.196 5.18268 140.049 5.24931C139.973 5.28262 139.901 5.31117 139.83 5.34448C139.763 5.3778 139.697 5.41111 139.63 5.43966C139.373 5.56339 139.154 5.66332 138.983 5.7585C138.645 5.90127 138.459 6.0012 138.459 6.0012Z" fill="#410C0C"/>
<path d="M197.568 8.26562C197.568 8.26562 197.711 8.32749 197.968 8.43218C198.097 8.48453 198.249 8.55115 198.43 8.62254C198.611 8.68916 198.815 8.7653 199.039 8.85096C199.096 8.86999 199.153 8.89379 199.21 8.91282C199.267 8.93186 199.329 8.95089 199.391 8.97469C199.515 9.01752 199.643 9.06035 199.772 9.10318C200.033 9.19359 200.314 9.27449 200.609 9.36015C201.195 9.53147 201.832 9.68851 202.484 9.83128C203.788 10.112 205.154 10.2738 206.253 10.3405C206.529 10.3547 206.791 10.3643 207.024 10.3738C207.262 10.3738 207.476 10.3785 207.662 10.3785C207.757 10.3785 207.843 10.3785 207.924 10.3785C208.004 10.3785 208.076 10.3738 208.138 10.369C208.266 10.3643 208.361 10.3547 208.423 10.35C208.542 10.3357 208.68 10.3167 208.828 10.2881C208.975 10.2548 209.132 10.212 209.294 10.1644C209.375 10.1406 209.456 10.112 209.542 10.0883C209.622 10.0597 209.708 10.0311 209.789 9.99783C209.951 9.93121 210.113 9.85983 210.265 9.78845C210.569 9.64568 210.836 9.4696 211.022 9.31256C211.202 9.15076 211.302 8.99372 211.269 8.85572C211.236 8.71771 211.083 8.61778 210.855 8.53688C210.627 8.46074 210.332 8.41791 210.013 8.37508C209.851 8.35604 209.689 8.34177 209.522 8.33701C209.442 8.33225 209.356 8.32749 209.275 8.32273C209.194 8.31797 209.113 8.31321 209.032 8.31321C208.875 8.30845 208.723 8.31321 208.58 8.31797C208.442 8.31797 208.314 8.32749 208.204 8.33701C208.147 8.34177 208.062 8.35604 207.943 8.37508C207.885 8.3846 207.819 8.39887 207.747 8.40839C207.676 8.41791 207.595 8.43218 207.51 8.44646C207.338 8.47501 207.143 8.50357 206.924 8.54164C206.705 8.57019 206.467 8.6035 206.21 8.63681C205.187 8.76054 203.883 8.85572 202.603 8.83192C201.961 8.81765 201.323 8.7891 200.733 8.73675C200.438 8.7082 200.148 8.68916 199.881 8.65109C199.748 8.63205 199.615 8.61778 199.486 8.6035C199.424 8.59398 199.362 8.58922 199.301 8.57971C199.239 8.57019 199.182 8.56067 199.12 8.55115C198.887 8.51308 198.672 8.47977 198.482 8.45122C198.292 8.41791 198.13 8.3846 197.997 8.3608C197.721 8.29418 197.568 8.26562 197.568 8.26562Z" fill="#410C0C"/>
<path d="M106.156 0C106.156 0 106.199 0.0904175 106.285 0.256976C106.328 0.342635 106.38 0.44257 106.437 0.566299C106.499 0.685269 106.58 0.823275 106.661 0.975557C107.004 1.58469 107.541 2.44127 108.331 3.374C109.121 4.30197 110.173 5.30608 111.463 6.1817C112.11 6.61951 112.814 7.02401 113.571 7.37616C114.327 7.73783 115.122 8.01384 115.879 8.31365C116.259 8.46593 116.631 8.62297 116.983 8.79429C117.068 8.83712 117.159 8.87995 117.245 8.92754L117.497 9.0703L117.739 9.21782C117.82 9.27017 117.896 9.32252 117.973 9.37486C118.125 9.48432 118.268 9.59853 118.401 9.7175C118.434 9.74605 118.468 9.77461 118.501 9.80792L118.596 9.90309L118.691 9.99827C118.72 10.0316 118.748 10.0649 118.777 10.0934C119.001 10.3552 119.181 10.6502 119.319 10.9596C119.595 11.5782 119.695 12.2587 119.648 12.8821C119.6 13.5055 119.4 14.0766 119.11 14.5144C119.091 14.5429 119.072 14.5715 119.053 14.5953C119.034 14.6238 119.015 14.6476 118.996 14.6762C118.953 14.7238 118.915 14.7761 118.877 14.8237C118.834 14.8713 118.796 14.9141 118.753 14.957C118.729 14.976 118.71 14.9998 118.686 15.0188C118.663 15.0379 118.644 15.0569 118.62 15.0807C118.439 15.2377 118.244 15.371 118.044 15.4757C117.644 15.6851 117.24 15.7945 116.883 15.8421C116.84 15.8469 116.797 15.8564 116.75 15.8564C116.707 15.8611 116.664 15.8611 116.621 15.8659C116.54 15.8659 116.459 15.8706 116.383 15.8706C116.307 15.8706 116.236 15.8659 116.169 15.8611C116.102 15.8516 116.041 15.8516 115.979 15.8421C115.741 15.8088 115.574 15.7612 115.469 15.7326C115.26 15.6755 115.032 15.5851 114.803 15.4614C114.689 15.3948 114.575 15.3234 114.465 15.2377C114.356 15.1521 114.251 15.0521 114.147 14.9427C113.947 14.719 113.761 14.443 113.628 14.1384C113.49 13.8339 113.395 13.496 113.347 13.1629C113.323 12.9963 113.309 12.8298 113.309 12.668C113.309 12.5062 113.314 12.3491 113.333 12.1968C113.361 11.897 113.433 11.6258 113.504 11.3926C113.647 10.931 113.818 10.6312 113.718 10.5217C113.671 10.4694 113.566 10.4742 113.404 10.5455C113.247 10.6169 113.043 10.7549 112.833 10.9786C112.624 11.2022 112.41 11.5021 112.243 11.878C112.157 12.0636 112.091 12.2682 112.034 12.4871C111.977 12.706 111.938 12.9345 111.915 13.1724C111.872 13.6483 111.905 14.1575 112.029 14.6571C112.148 15.1568 112.372 15.6517 112.667 16.0848C112.819 16.2989 112.99 16.4988 113.171 16.6796C113.357 16.8605 113.552 17.0128 113.752 17.146C114.151 17.4077 114.556 17.5791 114.913 17.679C115.089 17.7313 115.384 17.798 115.774 17.8313C115.869 17.8408 115.974 17.8456 116.083 17.8503C116.193 17.8503 116.307 17.8551 116.426 17.8456C116.545 17.8408 116.669 17.8313 116.802 17.817C116.869 17.8075 116.93 17.798 116.997 17.7884C117.064 17.7789 117.13 17.7647 117.202 17.7504C117.749 17.6457 118.368 17.4363 118.972 17.0604C119.272 16.8748 119.572 16.6416 119.848 16.3608C119.881 16.3275 119.914 16.2894 119.952 16.2561C119.986 16.218 120.019 16.18 120.052 16.1419C120.119 16.0658 120.181 15.9849 120.243 15.904C120.304 15.8231 120.362 15.7374 120.419 15.6517C120.447 15.6089 120.471 15.5661 120.5 15.5185C120.528 15.4757 120.552 15.4281 120.576 15.3852C121.394 13.9338 121.437 11.9684 120.561 10.3361C120.343 9.93165 120.067 9.54618 119.729 9.20831C119.686 9.16548 119.643 9.12265 119.6 9.08458L119.472 8.97037L119.338 8.85615C119.296 8.81808 119.248 8.78477 119.2 8.75146C119.02 8.6087 118.829 8.48021 118.634 8.36124C118.534 8.30413 118.439 8.24703 118.339 8.18992C118.239 8.13757 118.139 8.08523 118.039 8.03764L117.735 7.89963C117.635 7.8568 117.53 7.81397 117.43 7.77114C117.026 7.60934 116.616 7.47134 116.212 7.34761C115.408 7.09539 114.618 6.89076 113.89 6.60524C113.152 6.32922 112.452 5.99611 111.8 5.62492C110.501 4.88254 109.407 3.99265 108.56 3.14558C107.717 2.29375 107.118 1.49427 106.728 0.913692C106.632 0.766169 106.542 0.64244 106.471 0.52347C106.399 0.409258 106.342 0.309323 106.294 0.228423C106.209 0.0856587 106.156 0 106.156 0Z" fill="#410C0C"/>
<path d="M141.415 7.15746C141.415 7.15746 141.724 7.10988 142.266 7.02422C142.404 7.00518 142.552 6.98615 142.718 6.96235C142.885 6.93856 143.061 6.91476 143.251 6.89573C143.442 6.87669 143.646 6.8529 143.861 6.82911C144.075 6.81007 144.303 6.79103 144.536 6.772C145.483 6.70062 146.592 6.65303 147.787 6.67206C148.981 6.68634 150.256 6.77676 151.537 6.9338C151.698 6.95283 151.855 6.97187 152.017 6.99566L152.498 7.06705L152.736 7.10036L152.974 7.14319C153.131 7.17174 153.293 7.19553 153.45 7.22409C153.607 7.25264 153.764 7.28595 153.921 7.3145C154.078 7.34782 154.235 7.37637 154.387 7.40492C154.696 7.47155 154.996 7.53817 155.286 7.61431C155.867 7.76659 156.41 7.95219 156.881 8.18537C157.119 8.29958 157.338 8.42807 157.537 8.56131C157.733 8.69456 157.909 8.84208 158.066 8.99437C158.223 9.14665 158.361 9.30369 158.48 9.46549C158.594 9.62729 158.689 9.78433 158.77 9.94137C158.841 10.0984 158.903 10.2459 158.941 10.3887C158.956 10.422 158.956 10.4601 158.965 10.4934C158.97 10.5267 158.984 10.56 158.984 10.5933C158.994 10.66 159.008 10.7218 159.008 10.7837C159.013 10.8122 159.013 10.8455 159.017 10.8741C159.017 10.9027 159.017 10.9264 159.017 10.955C159.017 10.9788 159.017 11.0073 159.013 11.0311C159.013 11.0549 159.008 11.0787 159.008 11.1025C158.998 11.1977 158.979 11.2834 158.96 11.3643C158.922 11.5165 158.875 11.6307 158.846 11.6974C158.789 11.8354 158.713 11.9877 158.608 12.1399C158.503 12.2875 158.38 12.4302 158.232 12.5397C158.161 12.592 158.08 12.6396 157.994 12.6777C157.904 12.7158 157.842 12.7396 157.756 12.7586C157.59 12.7871 157.376 12.7681 157.171 12.692C156.966 12.6206 156.771 12.5016 156.619 12.3684C156.462 12.2351 156.348 12.0876 156.257 11.9448C156.172 11.8021 156.119 11.6641 156.072 11.5546C156.062 11.5261 156.048 11.5023 156.038 11.4785C156.029 11.4547 156.015 11.4356 156.005 11.4166C155.981 11.3785 155.953 11.3547 155.919 11.3405C155.886 11.3309 155.848 11.3357 155.805 11.3595C155.786 11.369 155.762 11.388 155.739 11.4071C155.715 11.4261 155.696 11.4547 155.672 11.4832C155.582 11.6022 155.496 11.8068 155.482 12.0828C155.467 12.3541 155.524 12.6872 155.681 13.0108C155.839 13.3344 156.081 13.658 156.419 13.9197C156.586 14.053 156.781 14.1672 156.99 14.2576C157.204 14.348 157.437 14.4147 157.69 14.4432C157.752 14.448 157.813 14.4575 157.88 14.4575C157.942 14.4575 158.009 14.4622 158.075 14.4575C158.208 14.448 158.327 14.4384 158.446 14.4147C158.684 14.3718 158.917 14.2909 159.127 14.191C159.555 13.9911 159.903 13.7008 160.164 13.3963C160.426 13.0917 160.607 12.7729 160.726 12.4873C160.783 12.3446 160.873 12.1066 160.935 11.7735C160.964 11.607 160.988 11.4166 160.992 11.2072C160.992 11.1549 160.992 11.0978 160.992 11.0454C160.992 10.9883 160.988 10.9312 160.983 10.8741C160.978 10.817 160.973 10.7551 160.964 10.698C160.954 10.6409 160.945 10.5838 160.935 10.5219C160.921 10.403 160.888 10.284 160.859 10.1603C160.845 10.0984 160.821 10.0365 160.802 9.97468C160.783 9.91282 160.764 9.85095 160.74 9.78909C160.65 9.54163 160.526 9.29417 160.378 9.04671C160.231 8.80401 160.055 8.56607 159.855 8.34241C159.655 8.11874 159.431 7.9046 159.184 7.70949C158.937 7.51437 158.67 7.32878 158.384 7.17174C158.099 7.0147 157.804 6.88145 157.495 6.76248C156.876 6.5293 156.229 6.37702 155.577 6.26756C155.248 6.21522 154.925 6.17239 154.596 6.13432C154.435 6.11528 154.268 6.10101 154.106 6.08673C153.94 6.07245 153.778 6.05342 153.611 6.03914C153.445 6.02487 153.278 6.01535 153.116 6.00107L152.869 5.98204L152.622 5.96776L152.122 5.94397C151.955 5.93445 151.789 5.93445 151.622 5.92969C150.294 5.89638 148.986 5.93445 147.772 6.03914C146.559 6.13908 145.445 6.30088 144.508 6.46743C144.275 6.51026 144.046 6.55309 143.832 6.59592C143.618 6.63875 143.418 6.68158 143.228 6.72441C143.037 6.76248 142.861 6.80531 142.699 6.84338C142.538 6.88145 142.39 6.91952 142.257 6.94808C141.719 7.07656 141.415 7.15746 141.415 7.15746Z" fill="#410C0C"/>
<path d="M107.655 8.16113C107.655 8.16113 107.636 8.22776 107.594 8.34673C107.575 8.40859 107.546 8.48473 107.522 8.57039C107.498 8.66081 107.47 8.7655 107.436 8.87971C107.408 8.99868 107.379 9.12717 107.346 9.26994C107.332 9.34132 107.318 9.41746 107.303 9.4936C107.289 9.56974 107.275 9.65064 107.26 9.7363C107.246 9.82196 107.237 9.90762 107.222 9.99328C107.213 10.0837 107.203 10.1741 107.189 10.2693C107.184 10.3169 107.18 10.3645 107.175 10.4121C107.17 10.4596 107.165 10.512 107.165 10.5596C107.16 10.6595 107.146 10.7642 107.146 10.8689C107.103 11.7064 107.175 12.7058 107.417 13.7575C107.541 14.281 107.703 14.8235 107.917 15.3565C108.131 15.8894 108.393 16.4224 108.698 16.9364C109.002 17.4503 109.359 17.9405 109.749 18.3973C110.144 18.8542 110.577 19.273 111.034 19.6442C111.953 20.3865 112.961 20.9243 113.899 21.2812C114.37 21.462 114.822 21.5953 115.241 21.7C115.66 21.7999 116.045 21.8713 116.388 21.9141C117.068 22.0045 117.558 22.0045 117.777 22.0045C118.215 21.995 118.791 21.9236 119.391 21.7666C119.99 21.6143 120.609 21.3764 121.137 21.0956C121.67 20.8148 122.108 20.4865 122.389 20.2009C122.46 20.1296 122.522 20.0629 122.57 19.9963C122.617 19.9297 122.66 19.8726 122.688 19.8155C122.746 19.706 122.76 19.6204 122.722 19.5585C122.684 19.4966 122.603 19.4681 122.479 19.4633C122.417 19.4586 122.351 19.4633 122.274 19.4681C122.198 19.4776 122.113 19.4824 122.022 19.4966C121.656 19.5537 121.18 19.6537 120.666 19.7346C120.152 19.8202 119.595 19.8821 119.081 19.9202C118.567 19.9582 118.087 19.963 117.725 19.9725C117.544 19.9725 117.14 20.0058 116.569 19.9773C116.283 19.9678 115.955 19.9344 115.593 19.8916C115.231 19.8393 114.841 19.7631 114.432 19.6537C113.609 19.4348 112.705 19.0731 111.853 18.5211C111.424 18.2451 111.01 17.9262 110.62 17.5646C110.23 17.2029 109.868 16.7984 109.54 16.3701C109.212 15.9418 108.916 15.4849 108.664 15.0138C108.412 14.5427 108.203 14.0621 108.031 13.5814C107.693 12.6249 107.517 11.6779 107.46 10.8689C107.403 10.0551 107.456 9.36987 107.517 8.89875C107.536 8.77978 107.551 8.67508 107.565 8.58467C107.579 8.49425 107.598 8.41811 107.608 8.35149C107.646 8.22776 107.655 8.16113 107.655 8.16113Z" fill="#410C0C"/>
<path d="M133.862 7.48597C133.862 7.48597 133.757 7.45266 133.581 7.39555C133.539 7.37652 133.491 7.35748 133.439 7.33845C133.386 7.31465 133.329 7.29562 133.272 7.26706C133.215 7.23851 133.153 7.20996 133.086 7.17665C133.053 7.16237 133.02 7.14334 132.987 7.1243C132.953 7.10526 132.92 7.08623 132.887 7.06719C132.615 6.90539 132.32 6.68649 132.054 6.40572C131.783 6.12971 131.545 5.79659 131.364 5.44444C131.354 5.42064 131.34 5.40161 131.33 5.37782L131.302 5.31119L131.24 5.17795C131.202 5.08753 131.173 4.99235 131.14 4.90669C131.116 4.81152 131.088 4.7211 131.069 4.63068C131.059 4.58309 131.05 4.54026 131.04 4.49268C131.031 4.44985 131.021 4.40226 131.016 4.35943C130.969 4.00252 130.983 3.66464 131.026 3.37435C131.031 3.33628 131.04 3.30297 131.045 3.2649C131.05 3.23159 131.054 3.19352 131.064 3.16021C131.078 3.09358 131.093 3.03172 131.112 2.96986C131.15 2.85088 131.178 2.74143 131.216 2.65101C131.235 2.60343 131.25 2.5606 131.264 2.52253C131.278 2.48446 131.297 2.45114 131.307 2.41783C131.33 2.35597 131.345 2.30838 131.359 2.27983C131.378 2.22272 131.397 2.1561 131.411 2.0752C131.43 1.99906 131.445 1.9134 131.459 1.82298C131.468 1.78015 131.478 1.73256 131.483 1.68498C131.492 1.63739 131.492 1.5898 131.507 1.54221C131.526 1.44703 131.535 1.34234 131.549 1.24716C131.559 1.19958 131.564 1.14723 131.568 1.09488C131.573 1.04254 131.583 0.999706 131.587 0.947359C131.597 0.852182 131.602 0.752247 131.602 0.666589C131.602 0.490513 131.573 0.333472 131.473 0.228778C131.378 0.128843 131.221 0.0955309 131.021 0.124084C130.921 0.13836 130.817 0.176431 130.707 0.224019C130.655 0.247813 130.593 0.276366 130.541 0.309678C130.483 0.342989 130.431 0.376301 130.374 0.41913C130.26 0.495271 130.16 0.590448 130.055 0.685624C130.003 0.733212 129.955 0.785559 129.912 0.842665C129.865 0.895012 129.822 0.952118 129.779 1.00446C129.698 1.11392 129.627 1.22813 129.57 1.33758C129.517 1.44703 129.47 1.55173 129.436 1.64215C129.417 1.68973 129.403 1.76587 129.379 1.86581C129.37 1.91816 129.356 1.97526 129.346 2.03713C129.337 2.09899 129.327 2.17037 129.317 2.24652C129.294 2.39404 129.294 2.57011 129.284 2.76047C129.289 2.85564 129.289 2.95558 129.294 3.05551C129.294 3.10786 129.298 3.16021 129.303 3.21255C129.308 3.2649 129.313 3.31725 129.317 3.37435C129.37 3.81217 129.484 4.29281 129.693 4.75917C129.717 4.81628 129.746 4.87338 129.774 4.93049C129.803 4.98759 129.831 5.0447 129.865 5.1018C129.927 5.21602 129.998 5.32071 130.065 5.43016C130.141 5.53486 130.212 5.63955 130.293 5.73948L130.417 5.88701L130.479 5.95839C130.498 5.98218 130.521 6.00598 130.545 6.02501C130.893 6.39144 131.283 6.68649 131.673 6.90064C132.059 7.11954 132.444 7.25755 132.772 7.33845C132.815 7.34796 132.853 7.35748 132.891 7.367C132.929 7.37652 132.967 7.38603 133.006 7.39079C133.082 7.40507 133.153 7.41459 133.22 7.42886C133.253 7.43362 133.286 7.43838 133.315 7.44314C133.348 7.4479 133.377 7.4479 133.405 7.45266C133.462 7.45742 133.515 7.46218 133.562 7.46693C133.753 7.48121 133.862 7.48597 133.862 7.48597Z" fill="#410C0C"/>
<path d="M199.486 7.15681C199.486 7.15681 205.725 7.30433 206.291 7.22343C206.853 7.14253 208.066 6.51437 207.986 5.96235C207.909 5.40557 206.572 5.13431 206.006 5.21521C205.444 5.29135 199.486 7.15681 199.486 7.15681Z" fill="#410C0C"/>
</svg>
