<svg   viewBox="0 0 20 28" fill="none" xmlns="http://www.w3.org/2000/svg">
<path d="M10 0C4.48611 0 0 4.18704 0 9.33335C0 10.8783 0.413848 12.4101 1.20059 13.7687L9.45317 27.6992C9.56303 27.8849 9.77238 28 10 28C10.2277 28 10.437 27.8849 10.5469 27.6992L18.8025 13.7641C19.5862 12.4101 20 10.8782 20 9.3333C20 4.18704 15.5139 0 10 0ZM10 14C7.24307 14 5.00004 11.9065 5.00004 9.33335C5.00004 6.7602 7.24307 4.6667 10 4.6667C12.757 4.6667 15 6.7602 15 9.33335C15 11.9065 12.757 14 10 14Z" fill="url(#paint0_linear_109_2013)"/>
<defs>
<linearGradient id="paint0_linear_109_2013" x1="10" y1="0" x2="10" y2="28" gradientUnits="userSpaceOnUse">
<stop stop-color="#350202"/>
<stop offset="1" stop-color="#6B0504"/>
</linearGradient>
</defs>
</svg>
